<svg width="600" height="366" viewBox="0 0 600 366" xmlns="http://www.w3.org/2000/svg"><mask id="satori_om-id"><rect x="0" y="0" width="576" height="342" fill="#fff"/></mask><mask id="satori_om-id-0"><rect x="12" y="12" width="576" height="342" fill="#fff"/></mask><rect x="12" y="12" width="576" height="342" fill="#45605C"/><mask id="satori_om-id-1"><rect x="4" y="4" width="576" height="342" fill="#fff"/></mask><rect x="4" y="4" width="576" height="342" fill="#A8C1BE"/><mask id="satori_om-id-2"><rect x="0" y="0" width="576" height="342" fill="#fff"/></mask><rect x="0" y="0" width="576" height="342" fill="#CFDDDB"/><mask id="satori_om-id-2-0"><rect x="55" y="60" width="466" height="55" fill="#fff"/></mask><defs><clipPath id="satori_bc-id-2-0-0"><rect x="55" y="60" width="466" height="31"/></clipPath></defs><mask id="satori_om-id-2-0-0"><rect x="55" y="60" width="464" height="29" fill="#fff"/><path width="466" height="31" fill="none" stroke="#000" stroke-width="4" d="M521,60 A0,0 0 0 1 521,60 v31 a0,0 0 0 1 0,0 h-466 A0,0 0 0 1 55,91"/></mask><rect x="55" y="60" width="466" height="31" fill="#135064"/><path width="466" height="31" clip-path="url(#satori_bc-id-2-0-0)" fill="none" stroke="#A8C1BE" stroke-width="4" d="M521,60 A0,0 0 0 1 521,60 v31 a0,0 0 0 1 0,0 h-466 A0,0 0 0 1 55,91"/><mask id="satori_om-id-2-0-0-0"><rect x="75" y="74" width="424" height="1" fill="#fff"/></mask><path fill="#FFF" d="M79.5 78.9L76.8 78.9L76.8 79.8L79.5 79.8L79.5 78.9ZM75.9 78.9L76.8 78.9Q76.8 78.9 76.8 71.7L76.8 71.7L75.9 71.7Q75.9 71.7 75.9 78.9L75.9 78.9ZM79.5 78.9L80.4 78.9L80.4 79.8L81.3 79.8L81.3 75.3L78.6 75.3L78.6 76.2L80.4 76.2Q80.4 76.2 80.4 78.0L80.4 78.0L79.5 78.0L79.5 78.9ZM81.3 71.7L80.4 71.7Q80.4 71.7 80.4 73.5L80.4 73.5L81.3 73.5Q81.3 73.5 81.3 71.7L81.3 71.7ZM76.8 70.8L76.8 71.7L80.4 71.7L80.4 70.8L76.8 70.8ZM83.1 79.8L88.5 79.8L88.5 78.9L84 78.9L84 70.8L83.1 70.8Q83.1 70.8 83.1 79.8L83.1 79.8ZM94.8 78.9L91.2 78.9L91.2 79.8L94.8 79.8L94.8 78.9ZM90.3 78.9L91.2 78.9Q91.2 78.9 91.2 71.7L91.2 71.7L90.3 71.7Q90.3 71.7 90.3 78.9L90.3 78.9ZM94.8 78.9L94.8 78.9L95.7 78.9Q95.7 78.9 95.7 71.7L95.7 71.7L94.8 71.7Q94.8 71.7 94.8 78.9ZM91.2 70.8L91.2 71.7L94.8 71.7L94.8 70.8L91.2 70.8ZM102.0 70.8L97.5 70.8Q97.5 70.8 97.5 79.8L97.5 79.8L102.0 79.8L102.0 78.9L98.4 78.9Q98.4 78.9 98.4 75.3L98.4 75.3L102.0 75.3Q102.0 75.3 102.0 78.9L102.0 78.9L102.9 78.9Q102.9 78.9 102.9 75.3L102.9 75.3L102.0 75.3L102.0 74.4L98.4 74.4L98.4 71.7L102.0 71.7L102.0 74.4L102.9 74.4L102.9 71.7L102.0 71.7L102.0 70.8ZM105.6 73.5L104.7 73.5L104.7 79.8L105.6 79.8Q105.6 79.8 105.6 76.2L105.6 76.2L109.2 76.2Q109.2 76.2 109.2 79.8L109.2 79.8L110.1 79.8L110.1 73.5L109.2 73.5Q109.2 73.5 109.2 75.3L109.2 75.3L105.6 75.3Q105.6 75.3 105.6 73.5L105.6 73.5ZM105.6 73.5L105.6 73.5L106.5 73.5Q106.5 73.5 106.5 71.7L106.5 71.7L105.6 71.7Q105.6 71.7 105.6 73.5ZM108.3 73.5L109.2 73.5Q109.2 73.5 109.2 71.7L109.2 71.7L108.3 71.7Q108.3 71.7 108.3 73.5L108.3 73.5ZM106.5 70.8L106.5 71.7L108.3 71.7L108.3 70.8L106.5 70.8ZM111.9 79.8L117.3 79.8L117.3 78.9L112.8 78.9L112.8 70.8L111.9 70.8Q111.9 70.8 111.9 79.8L111.9 79.8Z M129.9 70.8L126.3 70.8Q126.3 70.8 126.3 79.8L126.3 79.8L129.9 79.8L129.9 78.9L127.2 78.9Q127.2 78.9 127.2 71.7L127.2 71.7L129.9 71.7L129.9 72.6L130.8 72.6Q130.8 72.6 130.8 78.0L130.8 78.0L129.9 78.0L129.9 78.9L130.8 78.9L130.8 78.0L131.7 78.0Q131.7 78.0 131.7 72.6L131.7 72.6L130.8 72.6L130.8 71.7L129.9 71.7L129.9 70.8ZM134.4 73.5L133.5 73.5L133.5 79.8L134.4 79.8Q134.4 79.8 134.4 76.2L134.4 76.2L138 76.2Q138 76.2 138 79.8L138 79.8L138.9 79.8L138.9 73.5L138 73.5Q138 73.5 138 75.3L138 75.3L134.4 75.3Q134.4 75.3 134.4 73.5L134.4 73.5ZM134.4 73.5L134.4 73.5L135.3 73.5Q135.3 73.5 135.3 71.7L135.3 71.7L134.4 71.7Q134.4 71.7 134.4 73.5ZM137.1 73.5L138 73.5Q138 73.5 138 71.7L138 71.7L137.1 71.7Q137.1 71.7 137.1 73.5L137.1 73.5ZM135.3 70.8L135.3 71.7L137.1 71.7L137.1 70.8L135.3 70.8ZM144.3 71.7L147.0 71.7L147.0 70.8L140.7 70.8L140.7 71.7L143.4 71.7L143.4 79.8L144.3 79.8L144.3 71.7ZM148.8 73.5L147.9 73.5L147.9 79.8L148.8 79.8Q148.8 79.8 148.8 76.2L148.8 76.2L152.4 76.2Q152.4 76.2 152.4 79.8L152.4 79.8L153.3 79.8L153.3 73.5L152.4 73.5Q152.4 73.5 152.4 75.3L152.4 75.3L148.8 75.3Q148.8 75.3 148.8 73.5L148.8 73.5ZM148.8 73.5L148.8 73.5L149.7 73.5Q149.7 73.5 149.7 71.7L149.7 71.7L148.8 71.7Q148.8 71.7 148.8 73.5ZM151.5 73.5L152.4 73.5Q152.4 73.5 152.4 71.7L152.4 71.7L151.5 71.7Q151.5 71.7 151.5 73.5L151.5 73.5ZM149.7 70.8L149.7 71.7L151.5 71.7L151.5 70.8L149.7 70.8Z M162.3 79.8L167.7 79.8L167.7 78.9L163.2 78.9Q163.2 78.9 163.2 77.1L163.2 77.1L162.3 77.1L162.3 79.8ZM163.2 76.2L163.2 77.1L164.1 77.1L164.1 76.2L163.2 76.2ZM164.1 75.3L164.1 76.2L165 76.2L165 75.3L164.1 75.3ZM165 74.4L165 75.3L166.8 75.3L166.8 74.4L165 74.4ZM166.8 71.7L166.8 74.4L167.7 74.4L167.7 71.7L166.8 71.7ZM163.2 71.7L162.3 71.7Q162.3 71.7 162.3 73.5L162.3 73.5L163.2 73.5Q163.2 73.5 163.2 71.7L163.2 71.7ZM163.2 70.8L163.2 71.7L166.8 71.7L166.8 70.8L163.2 70.8ZM173.1 78.9L171.3 78.9L171.3 79.8L173.1 79.8L173.1 78.9ZM170.4 78.9L171.3 78.9L171.3 78.0L170.4 78.0L170.4 78.9ZM173.1 78.0L173.1 78.9L174 78.9L174 78.0L173.1 78.0ZM169.5 78.0L170.4 78.0L170.4 77.1L171.3 77.1L171.3 76.2L170.4 76.2Q170.4 76.2 170.4 72.6L170.4 72.6L169.5 72.6Q169.5 72.6 169.5 78.0L169.5 78.0ZM174 78.0L174 78.0L174.9 78.0Q174.9 78.0 174.9 72.6L174.9 72.6L174 72.6L174 73.5L173.1 73.5L173.1 74.4L172.2 74.4L172.2 75.3L171.3 75.3L171.3 76.2L172.2 76.2L172.2 75.3L173.1 75.3L173.1 74.4L174 74.4Q174 74.4 174 78.0ZM170.4 71.7L170.4 72.6L171.3 72.6L171.3 71.7L170.4 71.7ZM173.1 72.6L174 72.6L174 71.7L173.1 71.7L173.1 72.6ZM171.3 70.8L171.3 71.7L173.1 71.7L173.1 70.8L171.3 70.8ZM177.6 79.8L182.1 79.8L182.1 78.9L180.3 78.9L180.3 70.8L179.4 70.8L179.4 71.7L178.5 71.7L178.5 72.6L177.6 72.6L177.6 73.5L178.5 73.5L178.5 72.6L179.4 72.6L179.4 78.9L177.6 78.9L177.6 79.8ZM188.4 78.9L184.8 78.9L184.8 79.8L188.4 79.8L188.4 78.9ZM183.9 78.9L184.8 78.9Q184.8 78.9 184.8 75.3L184.8 75.3L183.9 75.3Q183.9 75.3 183.9 78.9L183.9 78.9ZM188.4 78.9L188.4 78.9L189.3 78.9Q189.3 78.9 189.3 75.3L189.3 75.3L188.4 75.3Q188.4 75.3 188.4 78.9ZM184.8 74.4L184.8 75.3L188.4 75.3L188.4 74.4L184.8 74.4ZM183.9 74.4L184.8 74.4L184.8 71.7L183.9 71.7L183.9 74.4ZM188.4 71.7L188.4 74.4L189.3 74.4L189.3 71.7L188.4 71.7ZM184.8 70.8L184.8 71.7L188.4 71.7L188.4 70.8L184.8 70.8ZM192.0 76.2L195.6 76.2L195.6 75.3L192.0 75.3L192.0 76.2ZM198.3 79.8L203.7 79.8L203.7 78.9L199.2 78.9Q199.2 78.9 199.2 77.1L199.2 77.1L198.3 77.1L198.3 79.8ZM199.2 76.2L199.2 77.1L200.1 77.1L200.1 76.2L199.2 76.2ZM200.1 75.3L200.1 76.2L201.0 76.2L201.0 75.3L200.1 75.3ZM201.0 74.4L201.0 75.3L202.8 75.3L202.8 74.4L201.0 74.4ZM202.8 71.7L202.8 74.4L203.7 74.4L203.7 71.7L202.8 71.7ZM199.2 71.7L198.3 71.7Q198.3 71.7 198.3 73.5L198.3 73.5L199.2 73.5Q199.2 73.5 199.2 71.7L199.2 71.7ZM199.2 70.8L199.2 71.7L202.8 71.7L202.8 70.8L199.2 70.8ZM209.1 78.9L207.3 78.9L207.3 79.8L209.1 79.8L209.1 78.9ZM206.4 78.9L207.3 78.9L207.3 78.0L206.4 78.0L206.4 78.9ZM209.1 78.0L209.1 78.9L210.0 78.9L210.0 78.0L209.1 78.0ZM205.5 78.0L206.4 78.0L206.4 77.1L207.3 77.1L207.3 76.2L206.4 76.2Q206.4 76.2 206.4 72.6L206.4 72.6L205.5 72.6Q205.5 72.6 205.5 78.0L205.5 78.0ZM210.0 78.0L210.0 78.0L210.9 78.0Q210.9 78.0 210.9 72.6L210.9 72.6L210.0 72.6L210.0 73.5L209.1 73.5L209.1 74.4L208.2 74.4L208.2 75.3L207.3 75.3L207.3 76.2L208.2 76.2L208.2 75.3L209.1 75.3L209.1 74.4L210.0 74.4Q210.0 74.4 210.0 78.0ZM206.4 71.7L206.4 72.6L207.3 72.6L207.3 71.7L206.4 71.7ZM209.1 72.6L210.0 72.6L210.0 71.7L209.1 71.7L209.1 72.6ZM207.3 70.8L207.3 71.7L209.1 71.7L209.1 70.8L207.3 70.8ZM212.7 79.8L218.1 79.8L218.1 78.9L213.6 78.9Q213.6 78.9 213.6 77.1L213.6 77.1L212.7 77.1L212.7 79.8ZM213.6 76.2L213.6 77.1L214.5 77.1L214.5 76.2L213.6 76.2ZM214.5 75.3L214.5 76.2L215.4 76.2L215.4 75.3L214.5 75.3ZM215.4 74.4L215.4 75.3L217.2 75.3L217.2 74.4L215.4 74.4ZM217.2 71.7L217.2 74.4L218.1 74.4L218.1 71.7L217.2 71.7ZM213.6 71.7L212.7 71.7Q212.7 71.7 212.7 73.5L212.7 73.5L213.6 73.5Q213.6 73.5 213.6 71.7L213.6 71.7ZM213.6 70.8L213.6 71.7L217.2 71.7L217.2 70.8L213.6 70.8ZM220.8 71.7L225.3 71.7L225.3 70.8L219.9 70.8L219.9 75.3L224.4 75.3Q224.4 75.3 224.4 78.9L224.4 78.9L220.8 78.9L220.8 79.8L224.4 79.8L224.4 78.9L225.3 78.9Q225.3 78.9 225.3 75.3L225.3 75.3L224.4 75.3L224.4 74.4L220.8 74.4L220.8 71.7ZM219.9 78.9L220.8 78.9L220.8 78.0L219.9 78.0L219.9 78.9ZM229.8 81.6L229.8 80.7L228.9 80.7L228.9 81.6L229.8 81.6ZM229.8 80.7L229.8 80.7L230.7 80.7L230.7 78.0L228.9 78.0L228.9 78.9L229.8 78.9Q229.8 78.9 229.8 80.7Z M242.4 79.8L246.9 79.8L246.9 78.9L245.1 78.9Q245.1 78.9 245.1 71.7L245.1 71.7L246.9 71.7L246.9 70.8L242.4 70.8L242.4 71.7L244.2 71.7Q244.2 71.7 244.2 78.9L244.2 78.9L242.4 78.9L242.4 79.8ZM249.6 70.8L248.7 70.8Q248.7 70.8 248.7 79.8L248.7 79.8L249.6 79.8L249.6 73.5L250.5 73.5Q250.5 73.5 250.5 75.3L250.5 75.3L251.4 75.3Q251.4 75.3 251.4 77.1L251.4 77.1L252.3 77.1Q252.3 77.1 252.3 78.9L252.3 78.9L253.2 78.9L253.2 79.8L254.1 79.8Q254.1 79.8 254.1 70.8L254.1 70.8L253.2 70.8L253.2 77.1L252.3 77.1Q252.3 77.1 252.3 75.3L252.3 75.3L251.4 75.3Q251.4 75.3 251.4 73.5L251.4 73.5L250.5 73.5Q250.5 73.5 250.5 71.7L250.5 71.7L249.6 71.7L249.6 70.8Z M263.1 79.8L268.5 79.8L268.5 78.9L264.0 78.9Q264.0 78.9 264.0 77.1L264.0 77.1L263.1 77.1L263.1 79.8ZM264.0 76.2L264.0 77.1L264.9 77.1L264.9 76.2L264.0 76.2ZM264.9 75.3L264.9 76.2L265.8 76.2L265.8 75.3L264.9 75.3ZM265.8 74.4L265.8 75.3L266.7 75.3L266.7 74.4L265.8 74.4ZM266.7 73.5L266.7 74.4L267.6 74.4L267.6 73.5L266.7 73.5ZM267.6 73.5L267.6 73.5L268.5 73.5L268.5 70.8L263.1 70.8L263.1 71.7L267.6 71.7Q267.6 71.7 267.6 73.5ZM270.3 79.8L275.7 79.8L275.7 78.9L271.2 78.9Q271.2 78.9 271.2 75.3L271.2 75.3L274.8 75.3L274.8 74.4L271.2 74.4L271.2 71.7L275.7 71.7L275.7 70.8L270.3 70.8Q270.3 70.8 270.3 79.8L270.3 79.8ZM281.1 71.7L283.8 71.7L283.8 70.8L277.5 70.8L277.5 71.7L280.2 71.7L280.2 79.8L281.1 79.8L281.1 71.7ZM288.3 71.7L291 71.7L291 70.8L284.7 70.8L284.7 71.7L287.4 71.7L287.4 79.8L288.3 79.8L288.3 71.7ZM292.8 73.5L291.9 73.5L291.9 79.8L292.8 79.8Q292.8 79.8 292.8 76.2L292.8 76.2L296.4 76.2Q296.4 76.2 296.4 79.8L296.4 79.8L297.3 79.8L297.3 73.5L296.4 73.5Q296.4 73.5 296.4 75.3L296.4 75.3L292.8 75.3Q292.8 75.3 292.8 73.5L292.8 73.5ZM292.8 73.5L292.8 73.5L293.7 73.5Q293.7 73.5 293.7 71.7L293.7 71.7L292.8 71.7Q292.8 71.7 292.8 73.5ZM295.5 73.5L296.4 73.5Q296.4 73.5 296.4 71.7L296.4 71.7L295.5 71.7Q295.5 71.7 295.5 73.5L295.5 73.5ZM293.7 70.8L293.7 71.7L295.5 71.7L295.5 70.8L293.7 70.8ZM303.6 70.8L299.1 70.8Q299.1 70.8 299.1 79.8L299.1 79.8L303.6 79.8L303.6 78.9L300 78.9Q300 78.9 300 75.3L300 75.3L303.6 75.3Q303.6 75.3 303.6 78.9L303.6 78.9L304.5 78.9Q304.5 78.9 304.5 75.3L304.5 75.3L303.6 75.3L303.6 74.4L300 74.4L300 71.7L303.6 71.7L303.6 74.4L304.5 74.4L304.5 71.7L303.6 71.7L303.6 70.8ZM309.9 75.3L309 75.3L309 79.8L309.9 79.8L309.9 75.3ZM308.1 75.3L309 75.3L309 74.4L308.1 74.4L308.1 75.3ZM309.9 74.4L309.9 75.3L310.8 75.3L310.8 74.4L309.9 74.4ZM307.2 74.4L308.1 74.4Q308.1 74.4 308.1 72.6L308.1 72.6L307.2 72.6Q307.2 72.6 307.2 74.4L307.2 74.4ZM310.8 74.4L310.8 74.4L311.7 74.4Q311.7 74.4 311.7 72.6L311.7 72.6L310.8 72.6Q310.8 72.6 310.8 74.4ZM306.3 72.6L307.2 72.6Q307.2 72.6 307.2 70.8L307.2 70.8L306.3 70.8Q306.3 70.8 306.3 72.6L306.3 72.6ZM311.7 72.6L311.7 72.6L312.6 72.6Q312.6 72.6 312.6 70.8L312.6 70.8L311.7 70.8Q311.7 70.8 311.7 72.6ZM317.1 71.7L319.8 71.7L319.8 70.8L313.5 70.8L313.5 71.7L316.2 71.7L316.2 79.8L317.1 79.8L317.1 71.7ZM320.7 79.8L326.1 79.8L326.1 78.9L321.6 78.9Q321.6 78.9 321.6 75.3L321.6 75.3L325.2 75.3L325.2 74.4L321.6 74.4L321.6 71.7L326.1 71.7L326.1 70.8L320.7 70.8Q320.7 70.8 320.7 79.8L320.7 79.8ZM332.4 78.9L328.8 78.9L328.8 79.8L332.4 79.8L332.4 78.9ZM327.9 78.9L328.8 78.9Q328.8 78.9 328.8 77.1L328.8 77.1L327.9 77.1Q327.9 77.1 327.9 78.9L327.9 78.9ZM332.4 76.2L332.4 78.9L333.3 78.9L333.3 76.2L332.4 76.2ZM330.6 76.2L332.4 76.2L332.4 75.3L330.6 75.3L330.6 76.2ZM328.8 75.3L330.6 75.3L330.6 74.4L328.8 74.4L328.8 75.3ZM327.9 74.4L328.8 74.4L328.8 71.7L327.9 71.7L327.9 74.4ZM333.3 71.7L332.4 71.7Q332.4 71.7 332.4 73.5L332.4 73.5L333.3 73.5Q333.3 73.5 333.3 71.7L333.3 71.7ZM328.8 70.8L328.8 71.7L332.4 71.7L332.4 70.8L328.8 70.8Z M345.9 80.7L346.8 80.7L346.8 79.8L345.9 79.8L345.9 80.7ZM345.9 70.8L346.8 70.8L346.8 69.9L345.9 69.9L345.9 70.8L345.0 70.8Q345.0 70.8 345.0 72.6L345.0 72.6L344.1 72.6Q344.1 72.6 344.1 78.0L344.1 78.0L345.0 78.0Q345.0 78.0 345.0 79.8L345.0 79.8L345.9 79.8Q345.9 79.8 345.9 78.0L345.9 78.0L345.0 78.0Q345.0 78.0 345.0 72.6L345.0 72.6L345.9 72.6Q345.9 72.6 345.9 70.8L345.9 70.8ZM350.4 79.8L354.9 79.8L354.9 78.9L353.1 78.9L353.1 70.8L352.2 70.8L352.2 71.7L351.3 71.7L351.3 72.6L350.4 72.6L350.4 73.5L351.3 73.5L351.3 72.6L352.2 72.6L352.2 78.9L350.4 78.9L350.4 79.8Z M363.9 79.8L369.3 79.8L369.3 78.9L364.8 78.9Q364.8 78.9 364.8 77.1L364.8 77.1L363.9 77.1L363.9 79.8ZM364.8 76.2L364.8 77.1L365.7 77.1L365.7 76.2L364.8 76.2ZM365.7 75.3L365.7 76.2L366.6 76.2L366.6 75.3L365.7 75.3ZM366.6 74.4L366.6 75.3L367.5 75.3L367.5 74.4L366.6 74.4ZM367.5 73.5L367.5 74.4L368.4 74.4L368.4 73.5L367.5 73.5ZM368.4 73.5L368.4 73.5L369.3 73.5L369.3 70.8L363.9 70.8L363.9 71.7L368.4 71.7Q368.4 71.7 368.4 73.5ZM375.6 70.8L371.1 70.8Q371.1 70.8 371.1 79.8L371.1 79.8L375.6 79.8L375.6 78.9L372.0 78.9Q372.0 78.9 372.0 75.3L372.0 75.3L375.6 75.3Q375.6 75.3 375.6 78.9L375.6 78.9L376.5 78.9Q376.5 78.9 376.5 75.3L376.5 75.3L375.6 75.3L375.6 74.4L372.0 74.4L372.0 71.7L375.6 71.7L375.6 74.4L376.5 74.4L376.5 71.7L375.6 71.7L375.6 70.8Z M385.5 78.0L390.9 78.0L390.9 77.1L385.5 77.1L385.5 78.0ZM385.5 74.4L390.9 74.4L390.9 73.5L385.5 73.5L385.5 74.4Z M400.8 79.8L405.3 79.8L405.3 78.9L403.5 78.9L403.5 70.8L402.6 70.8L402.6 71.7L401.7 71.7L401.7 72.6L400.8 72.6L400.8 73.5L401.7 73.5L401.7 72.6L402.6 72.6L402.6 78.9L400.8 78.9L400.8 79.8Z M417.9 71.7L420.6 71.7L420.6 70.8L414.3 70.8L414.3 71.7L417.0 71.7L417.0 79.8L417.9 79.8L417.9 71.7ZM426 70.8L421.5 70.8Q421.5 70.8 421.5 79.8L421.5 79.8L422.4 79.8L422.4 75.3L424.2 75.3L424.2 76.2L425.1 76.2Q425.1 76.2 425.1 78.0L425.1 78.0L426 78.0Q426 78.0 426 79.8L426 79.8L426.9 79.8Q426.9 79.8 426.9 78.0L426.9 78.0L426 78.0Q426 78.0 426 76.2L426 76.2L425.1 76.2L425.1 75.3L426 75.3L426 74.4L422.4 74.4L422.4 71.7L426 71.7L426 74.4L426.9 74.4L426.9 71.7L426 71.7L426 70.8ZM429.6 79.8L434.1 79.8L434.1 78.9L432.3 78.9Q432.3 78.9 432.3 71.7L432.3 71.7L434.1 71.7L434.1 70.8L429.6 70.8L429.6 71.7L431.4 71.7Q431.4 71.7 431.4 78.9L431.4 78.9L429.6 78.9L429.6 79.8ZM435.9 79.8L441.3 79.8L441.3 78.9L436.8 78.9L436.8 70.8L435.9 70.8Q435.9 70.8 435.9 79.8L435.9 79.8ZM443.1 79.8L448.5 79.8L448.5 78.9L444 78.9L444 70.8L443.1 70.8Q443.1 70.8 443.1 79.8L443.1 79.8ZM451.2 79.8L455.7 79.8L455.7 78.9L453.9 78.9Q453.9 78.9 453.9 71.7L453.9 71.7L455.7 71.7L455.7 70.8L451.2 70.8L451.2 71.7L453 71.7Q453 71.7 453 78.9L453 78.9L451.2 78.9L451.2 79.8ZM462.0 78.9L458.4 78.9L458.4 79.8L462.0 79.8L462.0 78.9ZM457.5 78.9L458.4 78.9Q458.4 78.9 458.4 71.7L458.4 71.7L457.5 71.7Q457.5 71.7 457.5 78.9L457.5 78.9ZM462.0 78.9L462.0 78.9L462.9 78.9Q462.9 78.9 462.9 71.7L462.9 71.7L462.0 71.7Q462.0 71.7 462.0 78.9ZM458.4 70.8L458.4 71.7L462.0 71.7L462.0 70.8L458.4 70.8ZM465.6 70.8L464.7 70.8Q464.7 70.8 464.7 79.8L464.7 79.8L465.6 79.8L465.6 73.5L466.5 73.5Q466.5 73.5 466.5 75.3L466.5 75.3L467.4 75.3Q467.4 75.3 467.4 77.1L467.4 77.1L468.3 77.1Q468.3 77.1 468.3 78.9L468.3 78.9L469.2 78.9L469.2 79.8L470.1 79.8Q470.1 79.8 470.1 70.8L470.1 70.8L469.2 70.8L469.2 77.1L468.3 77.1Q468.3 77.1 468.3 75.3L468.3 75.3L467.4 75.3Q467.4 75.3 467.4 73.5L467.4 73.5L466.5 73.5Q466.5 73.5 466.5 71.7L466.5 71.7L465.6 71.7L465.6 70.8Z M482.7 78.9L480.0 78.9L480.0 79.8L482.7 79.8L482.7 78.9ZM479.1 78.9L480.0 78.9Q480.0 78.9 480.0 71.7L480.0 71.7L479.1 71.7Q479.1 71.7 479.1 78.9L479.1 78.9ZM482.7 78.9L483.6 78.9L483.6 79.8L484.5 79.8L484.5 75.3L481.8 75.3L481.8 76.2L483.6 76.2Q483.6 76.2 483.6 78.0L483.6 78.0L482.7 78.0L482.7 78.9ZM484.5 71.7L483.6 71.7Q483.6 71.7 483.6 73.5L483.6 73.5L484.5 73.5Q484.5 73.5 484.5 71.7L484.5 71.7ZM480.0 70.8L480.0 71.7L483.6 71.7L483.6 70.8L480.0 70.8ZM490.8 70.8L486.3 70.8Q486.3 70.8 486.3 79.8L486.3 79.8L490.8 79.8L490.8 78.9L487.2 78.9Q487.2 78.9 487.2 75.3L487.2 75.3L490.8 75.3Q490.8 75.3 490.8 78.9L490.8 78.9L491.7 78.9Q491.7 78.9 491.7 75.3L491.7 75.3L490.8 75.3L490.8 74.4L487.2 74.4L487.2 71.7L490.8 71.7L490.8 74.4L491.7 74.4L491.7 71.7L490.8 71.7L490.8 70.8ZM495.3 80.7L495.3 79.8L494.4 79.8L494.4 80.7L495.3 80.7ZM495.3 79.8L495.3 79.8L496.2 79.8Q496.2 79.8 496.2 78.0L496.2 78.0L495.3 78.0Q495.3 78.0 495.3 79.8ZM496.2 78.0L496.2 78.0L497.1 78.0Q497.1 78.0 497.1 72.6L497.1 72.6L496.2 72.6Q496.2 72.6 496.2 78.0ZM495.3 72.6L496.2 72.6Q496.2 72.6 496.2 70.8L496.2 70.8L495.3 70.8Q495.3 70.8 495.3 72.6L495.3 72.6ZM494.4 70.8L495.3 70.8L495.3 69.9L494.4 69.9L494.4 70.8Z "/><mask id="satori_om-id-2-1"><rect x="40" y="115" width="496" height="167" fill="#fff"/></mask><path fill="#135064" d="M40 123.3L42 123.3L42 122.3L40 122.3L40 123.3ZM43 123.3L45 123.3L45 122.3L43 122.3L43 123.3ZM46 123.3L48 123.3L48 122.3L46 122.3L46 123.3ZM48 123.3L50 123.3L50 122.3L48 122.3L48 123.3ZM51 123.3L53 123.3L53 122.3L51 122.3L51 123.3ZM54 123.3L56 123.3L56 122.3L54 122.3L54 123.3ZM56 123.3L58 123.3L58 122.3L56 122.3L56 123.3ZM59 123.3L61 123.3L61 122.3L59 122.3L59 123.3ZM62 123.3L64 123.3L64 122.3L62 122.3L62 123.3ZM64 123.3L66 123.3L66 122.3L64 122.3L64 123.3ZM67 123.3L69 123.3L69 122.3L67 122.3L67 123.3ZM70 123.3L72 123.3L72 122.3L70 122.3L70 123.3ZM72 123.3L74 123.3L74 122.3L72 122.3L72 123.3ZM75 123.3L77 123.3L77 122.3L75 122.3L75 123.3ZM78 123.3L80 123.3L80 122.3L78 122.3L78 123.3ZM80 123.3L82 123.3L82 122.3L80 122.3L80 123.3ZM83 123.3L85 123.3L85 122.3L83 122.3L83 123.3ZM86 123.3L88 123.3L88 122.3L86 122.3L86 123.3ZM88 123.3L90 123.3L90 122.3L88 122.3L88 123.3ZM91 123.3L93 123.3L93 122.3L91 122.3L91 123.3ZM94 123.3L96 123.3L96 122.3L94 122.3L94 123.3ZM96 123.3L98 123.3L98 122.3L96 122.3L96 123.3ZM99 123.3L101 123.3L101 122.3L99 122.3L99 123.3ZM102 123.3L104 123.3L104 122.3L102 122.3L102 123.3ZM104 123.3L106 123.3L106 122.3L104 122.3L104 123.3ZM107 123.3L109 123.3L109 122.3L107 122.3L107 123.3ZM110 123.3L112 123.3L112 122.3L110 122.3L110 123.3ZM112 123.3L114 123.3L114 122.3L112 122.3L112 123.3ZM115 123.3L117 123.3L117 122.3L115 122.3L115 123.3ZM118 123.3L120 123.3L120 122.3L118 122.3L118 123.3ZM120 123.3L122 123.3L122 122.3L120 122.3L120 123.3ZM123 123.3L125 123.3L125 122.3L123 122.3L123 123.3ZM126 123.3L128 123.3L128 122.3L126 122.3L126 123.3ZM128 123.3L130 123.3L130 122.3L128 122.3L128 123.3ZM131 123.3L133 123.3L133 122.3L131 122.3L131 123.3ZM134 123.3L136 123.3L136 122.3L134 122.3L134 123.3ZM136 123.3L138 123.3L138 122.3L136 122.3L136 123.3ZM139 123.3L141 123.3L141 122.3L139 122.3L139 123.3ZM142 123.3L144 123.3L144 122.3L142 122.3L142 123.3ZM144 123.3L146 123.3L146 122.3L144 122.3L144 123.3ZM147 123.3L149 123.3L149 122.3L147 122.3L147 123.3ZM150 123.3L152 123.3L152 122.3L150 122.3L150 123.3ZM152 123.3L154 123.3L154 122.3L152 122.3L152 123.3ZM155 123.3L157 123.3L157 122.3L155 122.3L155 123.3ZM158 123.3L160 123.3L160 122.3L158 122.3L158 123.3ZM160 123.3L162 123.3L162 122.3L160 122.3L160 123.3ZM163 123.3L165 123.3L165 122.3L163 122.3L163 123.3ZM166 123.3L168 123.3L168 122.3L166 122.3L166 123.3ZM168 123.3L170 123.3L170 122.3L168 122.3L168 123.3ZM171 123.3L173 123.3L173 122.3L171 122.3L171 123.3ZM174 123.3L176 123.3L176 122.3L174 122.3L174 123.3ZM176 123.3L178 123.3L178 122.3L176 122.3L176 123.3ZM179 123.3L181 123.3L181 122.3L179 122.3L179 123.3ZM182 123.3L184 123.3L184 122.3L182 122.3L182 123.3ZM184 123.3L186 123.3L186 122.3L184 122.3L184 123.3ZM187 123.3L189 123.3L189 122.3L187 122.3L187 123.3ZM190 123.3L192 123.3L192 122.3L190 122.3L190 123.3ZM192 123.3L194 123.3L194 122.3L192 122.3L192 123.3ZM195 123.3L197 123.3L197 122.3L195 122.3L195 123.3ZM198 123.3L200 123.3L200 122.3L198 122.3L198 123.3ZM200 123.3L202 123.3L202 122.3L200 122.3L200 123.3ZM203 123.3L205 123.3L205 122.3L203 122.3L203 123.3ZM206 123.3L208 123.3L208 122.3L206 122.3L206 123.3ZM208 123.3L210 123.3L210 122.3L208 122.3L208 123.3ZM211 123.3L213 123.3L213 122.3L211 122.3L211 123.3ZM214 123.3L216 123.3L216 122.3L214 122.3L214 123.3ZM216 123.3L218 123.3L218 122.3L216 122.3L216 123.3ZM219 123.3L221 123.3L221 122.3L219 122.3L219 123.3ZM222 123.3L224 123.3L224 122.3L222 122.3L222 123.3ZM224 123.3L226 123.3L226 122.3L224 122.3L224 123.3ZM227 123.3L229 123.3L229 122.3L227 122.3L227 123.3ZM230 123.3L232 123.3L232 122.3L230 122.3L230 123.3ZM232 123.3L234 123.3L234 122.3L232 122.3L232 123.3ZM235 123.3L237 123.3L237 122.3L235 122.3L235 123.3ZM238 123.3L240 123.3L240 122.3L238 122.3L238 123.3ZM240 123.3L242 123.3L242 122.3L240 122.3L240 123.3ZM243 123.3L245 123.3L245 122.3L243 122.3L243 123.3ZM246 123.3L248 123.3L248 122.3L246 122.3L246 123.3ZM248 123.3L250 123.3L250 122.3L248 122.3L248 123.3ZM251 123.3L253 123.3L253 122.3L251 122.3L251 123.3ZM254 123.3L256 123.3L256 122.3L254 122.3L254 123.3ZM256 123.3L258 123.3L258 122.3L256 122.3L256 123.3ZM259 123.3L261 123.3L261 122.3L259 122.3L259 123.3ZM262 123.3L264 123.3L264 122.3L262 122.3L262 123.3ZM264 123.3L266 123.3L266 122.3L264 122.3L264 123.3ZM267 123.3L269 123.3L269 122.3L267 122.3L267 123.3ZM270 123.3L272 123.3L272 122.3L270 122.3L270 123.3ZM272 123.3L274 123.3L274 122.3L272 122.3L272 123.3ZM275 123.3L277 123.3L277 122.3L275 122.3L275 123.3ZM278 123.3L280 123.3L280 122.3L278 122.3L278 123.3ZM280 123.3L282 123.3L282 122.3L280 122.3L280 123.3ZM283 123.3L285 123.3L285 122.3L283 122.3L283 123.3ZM286 123.3L288 123.3L288 122.3L286 122.3L286 123.3ZM288 123.3L290 123.3L290 122.3L288 122.3L288 123.3ZM291 123.3L293 123.3L293 122.3L291 122.3L291 123.3ZM294 123.3L296 123.3L296 122.3L294 122.3L294 123.3ZM296 123.3L298 123.3L298 122.3L296 122.3L296 123.3ZM299 123.3L301 123.3L301 122.3L299 122.3L299 123.3ZM302 123.3L304 123.3L304 122.3L302 122.3L302 123.3ZM304 123.3L306 123.3L306 122.3L304 122.3L304 123.3ZM307 123.3L309 123.3L309 122.3L307 122.3L307 123.3ZM310 123.3L312 123.3L312 122.3L310 122.3L310 123.3ZM312 123.3L314 123.3L314 122.3L312 122.3L312 123.3ZM315 123.3L317 123.3L317 122.3L315 122.3L315 123.3ZM318 123.3L320 123.3L320 122.3L318 122.3L318 123.3ZM320 123.3L322 123.3L322 122.3L320 122.3L320 123.3ZM323 123.3L325 123.3L325 122.3L323 122.3L323 123.3ZM326 123.3L328 123.3L328 122.3L326 122.3L326 123.3ZM328 123.3L330 123.3L330 122.3L328 122.3L328 123.3ZM331 123.3L333 123.3L333 122.3L331 122.3L331 123.3ZM334 123.3L336 123.3L336 122.3L334 122.3L334 123.3ZM336 123.3L338 123.3L338 122.3L336 122.3L336 123.3ZM339 123.3L341 123.3L341 122.3L339 122.3L339 123.3ZM342 123.3L344 123.3L344 122.3L342 122.3L342 123.3ZM344 123.3L346 123.3L346 122.3L344 122.3L344 123.3ZM347 123.3L349 123.3L349 122.3L347 122.3L347 123.3ZM350 123.3L352 123.3L352 122.3L350 122.3L350 123.3ZM352 123.3L354 123.3L354 122.3L352 122.3L352 123.3ZM355 123.3L357 123.3L357 122.3L355 122.3L355 123.3ZM358 123.3L360 123.3L360 122.3L358 122.3L358 123.3ZM360 123.3L362 123.3L362 122.3L360 122.3L360 123.3ZM363 123.3L365 123.3L365 122.3L363 122.3L363 123.3ZM366 123.3L368 123.3L368 122.3L366 122.3L366 123.3ZM368 123.3L370 123.3L370 122.3L368 122.3L368 123.3ZM371 123.3L373 123.3L373 122.3L371 122.3L371 123.3ZM374 123.3L376 123.3L376 122.3L374 122.3L374 123.3ZM376 123.3L378 123.3L378 122.3L376 122.3L376 123.3ZM379 123.3L381 123.3L381 122.3L379 122.3L379 123.3ZM382 123.3L384 123.3L384 122.3L382 122.3L382 123.3ZM384 123.3L386 123.3L386 122.3L384 122.3L384 123.3ZM387 123.3L389 123.3L389 122.3L387 122.3L387 123.3ZM390 123.3L392 123.3L392 122.3L390 122.3L390 123.3ZM392 123.3L394 123.3L394 122.3L392 122.3L392 123.3ZM395 123.3L397 123.3L397 122.3L395 122.3L395 123.3ZM398 123.3L400 123.3L400 122.3L398 122.3L398 123.3ZM400 123.3L402 123.3L402 122.3L400 122.3L400 123.3ZM403 123.3L405 123.3L405 122.3L403 122.3L403 123.3ZM406 123.3L408 123.3L408 122.3L406 122.3L406 123.3ZM408 123.3L410 123.3L410 122.3L408 122.3L408 123.3ZM411 123.3L413 123.3L413 122.3L411 122.3L411 123.3ZM414 123.3L416 123.3L416 122.3L414 122.3L414 123.3ZM416 123.3L418 123.3L418 122.3L416 122.3L416 123.3ZM419 123.3L421 123.3L421 122.3L419 122.3L419 123.3ZM422 123.3L424 123.3L424 122.3L422 122.3L422 123.3ZM424 123.3L426 123.3L426 122.3L424 122.3L424 123.3ZM427 123.3L429 123.3L429 122.3L427 122.3L427 123.3ZM430 123.3L432 123.3L432 122.3L430 122.3L430 123.3ZM439 115.3L432 115.3Q432 115.3 432 131.3L432 131.3L439 131.3Q439 131.3 439 115.3L439 115.3ZM447 115.3L440 115.3Q440 115.3 440 131.3L440 131.3L447 131.3Q447 131.3 447 115.3L447 115.3ZM455 115.3L448 115.3Q448 115.3 448 131.3L448 131.3L455 131.3Q455 131.3 455 115.3L455 115.3ZM463 115.3L456 115.3Q456 115.3 456 131.3L456 131.3L463 131.3Q463 131.3 463 115.3L463 115.3ZM471 115.3L464 115.3Q464 115.3 464 131.3L464 131.3L471 131.3Q471 131.3 471 115.3L471 115.3ZM479 115.3L472 115.3Q472 115.3 472 131.3L472 131.3L479 131.3Q479 131.3 479 115.3L479 115.3ZM498 129.3L503 129.3L503 128.3L501 128.3L501 119.3L500 119.3L500 120.3L499 120.3L499 121.3L498 121.3L498 122.3L499 122.3L499 121.3L500 121.3L500 128.3L498 128.3L498 129.3ZM510 128.3L506 128.3L506 129.3L510 129.3L510 128.3ZM505 128.3L506 128.3Q506 128.3 506 124.3L506 124.3L505 124.3Q505 124.3 505 128.3L505 128.3ZM510 128.3L510 128.3L511 128.3Q511 128.3 511 124.3L511 124.3L510 124.3Q510 124.3 510 128.3ZM506 123.3L506 124.3L510 124.3L510 123.3L506 123.3ZM505 123.3L506 123.3L506 120.3L505 120.3L505 123.3ZM510 120.3L510 123.3L511 123.3L511 120.3L510 120.3ZM506 119.3L506 120.3L510 120.3L510 119.3L506 119.3ZM513 129.3L519 129.3L519 128.3L514 128.3Q514 128.3 514 126.3L514 126.3L513 126.3L513 129.3ZM514 125.3L514 126.3L515 126.3L515 125.3L514 125.3ZM515 124.3L515 125.3L516 125.3L516 124.3L515 124.3ZM516 123.3L516 124.3L518 124.3L518 123.3L516 123.3ZM518 120.3L518 123.3L519 123.3L519 120.3L518 120.3ZM514 120.3L513 120.3Q513 120.3 513 122.3L513 122.3L514 122.3Q514 122.3 514 120.3L514 120.3ZM514 119.3L514 120.3L518 120.3L518 119.3L514 119.3Z M40 140L42 140L42 139L40 139L40 140ZM43 140L45 140L45 139L43 139L43 140ZM46 140L48 140L48 139L46 139L46 140ZM48 140L50 140L50 139L48 139L48 140ZM51 140L53 140L53 139L51 139L51 140ZM54 140L56 140L56 139L54 139L54 140ZM56 140L58 140L58 139L56 139L56 140ZM59 140L61 140L61 139L59 139L59 140ZM62 140L64 140L64 139L62 139L62 140ZM64 140L66 140L66 139L64 139L64 140ZM67 140L69 140L69 139L67 139L67 140ZM70 140L72 140L72 139L70 139L70 140ZM72 140L74 140L74 139L72 139L72 140ZM75 140L77 140L77 139L75 139L75 140ZM78 140L80 140L80 139L78 139L78 140ZM80 140L82 140L82 139L80 139L80 140ZM83 140L85 140L85 139L83 139L83 140ZM86 140L88 140L88 139L86 139L86 140ZM88 140L90 140L90 139L88 139L88 140ZM91 140L93 140L93 139L91 139L91 140ZM94 140L96 140L96 139L94 139L94 140ZM96 140L98 140L98 139L96 139L96 140ZM99 140L101 140L101 139L99 139L99 140ZM102 140L104 140L104 139L102 139L102 140ZM104 140L106 140L106 139L104 139L104 140ZM107 140L109 140L109 139L107 139L107 140ZM110 140L112 140L112 139L110 139L110 140ZM112 140L114 140L114 139L112 139L112 140ZM115 140L117 140L117 139L115 139L115 140ZM118 140L120 140L120 139L118 139L118 140ZM120 140L122 140L122 139L120 139L120 140ZM123 140L125 140L125 139L123 139L123 140ZM126 140L128 140L128 139L126 139L126 140ZM128 140L130 140L130 139L128 139L128 140ZM131 140L133 140L133 139L131 139L131 140ZM134 140L136 140L136 139L134 139L134 140ZM136 140L138 140L138 139L136 139L136 140ZM139 140L141 140L141 139L139 139L139 140ZM142 140L144 140L144 139L142 139L142 140ZM144 140L146 140L146 139L144 139L144 140ZM147 140L149 140L149 139L147 139L147 140ZM150 140L152 140L152 139L150 139L150 140ZM152 140L154 140L154 139L152 139L152 140ZM155 140L157 140L157 139L155 139L155 140ZM158 140L160 140L160 139L158 139L158 140ZM160 140L162 140L162 139L160 139L160 140ZM163 140L165 140L165 139L163 139L163 140ZM166 140L168 140L168 139L166 139L166 140ZM168 140L170 140L170 139L168 139L168 140ZM171 140L173 140L173 139L171 139L171 140ZM174 140L176 140L176 139L174 139L174 140ZM176 140L178 140L178 139L176 139L176 140ZM179 140L181 140L181 139L179 139L179 140ZM182 140L184 140L184 139L182 139L182 140ZM184 140L186 140L186 139L184 139L184 140ZM187 140L189 140L189 139L187 139L187 140ZM190 140L192 140L192 139L190 139L190 140ZM192 140L194 140L194 139L192 139L192 140ZM195 140L197 140L197 139L195 139L195 140ZM198 140L200 140L200 139L198 139L198 140ZM200 140L202 140L202 139L200 139L200 140ZM203 140L205 140L205 139L203 139L203 140ZM206 140L208 140L208 139L206 139L206 140ZM208 140L210 140L210 139L208 139L208 140ZM211 140L213 140L213 139L211 139L211 140ZM214 140L216 140L216 139L214 139L214 140ZM216 140L218 140L218 139L216 139L216 140ZM219 140L221 140L221 139L219 139L219 140ZM222 140L224 140L224 139L222 139L222 140ZM224 140L226 140L226 139L224 139L224 140ZM227 140L229 140L229 139L227 139L227 140ZM230 140L232 140L232 139L230 139L230 140ZM232 140L234 140L234 139L232 139L232 140ZM235 140L237 140L237 139L235 139L235 140ZM238 140L240 140L240 139L238 139L238 140ZM240 140L242 140L242 139L240 139L240 140ZM243 140L245 140L245 139L243 139L243 140ZM246 140L248 140L248 139L246 139L246 140ZM248 140L250 140L250 139L248 139L248 140ZM251 140L253 140L253 139L251 139L251 140ZM254 140L256 140L256 139L254 139L254 140ZM256 140L258 140L258 139L256 139L256 140ZM259 140L261 140L261 139L259 139L259 140ZM262 140L264 140L264 139L262 139L262 140ZM264 140L266 140L266 139L264 139L264 140ZM267 140L269 140L269 139L267 139L267 140ZM270 140L272 140L272 139L270 139L270 140ZM272 140L274 140L274 139L272 139L272 140ZM275 140L277 140L277 139L275 139L275 140ZM278 140L280 140L280 139L278 139L278 140ZM280 140L282 140L282 139L280 139L280 140ZM283 140L285 140L285 139L283 139L283 140ZM286 140L288 140L288 139L286 139L286 140ZM288 140L290 140L290 139L288 139L288 140ZM291 140L293 140L293 139L291 139L291 140ZM294 140L296 140L296 139L294 139L294 140ZM296 140L298 140L298 139L296 139L296 140ZM299 140L301 140L301 139L299 139L299 140ZM302 140L304 140L304 139L302 139L302 140ZM304 140L306 140L306 139L304 139L304 140ZM307 140L309 140L309 139L307 139L307 140ZM310 140L312 140L312 139L310 139L310 140ZM312 140L314 140L314 139L312 139L312 140ZM315 140L317 140L317 139L315 139L315 140ZM318 140L320 140L320 139L318 139L318 140ZM320 140L322 140L322 139L320 139L320 140ZM323 140L325 140L325 139L323 139L323 140ZM326 140L328 140L328 139L326 139L326 140ZM328 140L330 140L330 139L328 139L328 140ZM331 140L333 140L333 139L331 139L331 140ZM334 140L336 140L336 139L334 139L334 140ZM336 140L338 140L338 139L336 139L336 140ZM339 140L341 140L341 139L339 139L339 140ZM342 140L344 140L344 139L342 139L342 140ZM344 140L346 140L346 139L344 139L344 140ZM347 140L349 140L349 139L347 139L347 140ZM350 140L352 140L352 139L350 139L350 140ZM352 140L354 140L354 139L352 139L352 140ZM355 140L357 140L357 139L355 139L355 140ZM358 140L360 140L360 139L358 139L358 140ZM360 140L362 140L362 139L360 139L360 140ZM363 140L365 140L365 139L363 139L363 140ZM366 140L368 140L368 139L366 139L366 140ZM368 140L370 140L370 139L368 139L368 140ZM371 140L373 140L373 139L371 139L371 140ZM374 140L376 140L376 139L374 139L374 140ZM376 140L378 140L378 139L376 139L376 140ZM379 140L381 140L381 139L379 139L379 140ZM382 140L384 140L384 139L382 139L382 140ZM384 140L386 140L386 139L384 139L384 140ZM387 140L389 140L389 139L387 139L387 140ZM390 140L392 140L392 139L390 139L390 140ZM392 140L394 140L394 139L392 139L392 140ZM395 140L397 140L397 139L395 139L395 140ZM398 140L400 140L400 139L398 139L398 140ZM400 140L402 140L402 139L400 139L400 140ZM403 140L405 140L405 139L403 139L403 140ZM406 140L408 140L408 139L406 139L406 140ZM408 140L410 140L410 139L408 139L408 140ZM411 140L413 140L413 139L411 139L411 140ZM414 140L416 140L416 139L414 139L414 140ZM416 140L418 140L418 139L416 139L416 140ZM419 140L421 140L421 139L419 139L419 140ZM422 140L424 140L424 139L422 139L422 140ZM424 140L426 140L426 139L424 139L424 140ZM427 140L429 140L429 139L427 139L427 140ZM430 140L432 140L432 139L430 139L430 140ZM439 132L432 132Q432 132 432 148L432 148L439 148Q439 148 439 132L439 132ZM447 132L440 132Q440 132 440 148L440 148L447 148Q447 148 447 132L447 132ZM455 132L448 132Q448 132 448 148L448 148L455 148Q455 148 455 132L455 132ZM463 132L456 132Q456 132 456 148L456 148L463 148Q463 148 463 132L463 132ZM471 132L464 132Q464 132 464 148L464 148L471 148Q471 148 471 132L471 132ZM479 132L472 132Q472 132 472 148L472 148L479 148Q479 148 479 132L479 132ZM498 146L503 146L503 145L501 145L501 136L500 136L500 137L499 137L499 138L498 138L498 139L499 139L499 138L500 138L500 145L498 145L498 146ZM507 137L510 137L510 136L507 136L507 137L506 137L506 138L505 138L505 145L506 145L506 146L510 146L510 145L506 145Q506 145 506 141L506 141L510 141Q510 141 510 145L510 145L511 145Q511 145 511 141L511 141L510 141L510 140L506 140Q506 140 506 138L506 138L507 138L507 137ZM518 143L519 143L519 142L518 142Q518 142 518 136L518 136L517 136L517 137L516 137L516 138L515 138L515 139L514 139L514 140L513 140L513 143L517 143L517 146L518 146L518 143ZM517 142L514 142Q514 142 514 140L514 140L515 140L515 139L516 139L516 138L517 138Q517 138 517 142L517 142Z M40 156.7L42 156.7L42 155.7L40 155.7L40 156.7ZM43 156.7L45 156.7L45 155.7L43 155.7L43 156.7ZM46 156.7L48 156.7L48 155.7L46 155.7L46 156.7ZM48 156.7L50 156.7L50 155.7L48 155.7L48 156.7ZM51 156.7L53 156.7L53 155.7L51 155.7L51 156.7ZM54 156.7L56 156.7L56 155.7L54 155.7L54 156.7ZM56 156.7L58 156.7L58 155.7L56 155.7L56 156.7ZM59 156.7L61 156.7L61 155.7L59 155.7L59 156.7ZM62 156.7L64 156.7L64 155.7L62 155.7L62 156.7ZM64 156.7L66 156.7L66 155.7L64 155.7L64 156.7ZM67 156.7L69 156.7L69 155.7L67 155.7L67 156.7ZM70 156.7L72 156.7L72 155.7L70 155.7L70 156.7ZM72 156.7L74 156.7L74 155.7L72 155.7L72 156.7ZM75 156.7L77 156.7L77 155.7L75 155.7L75 156.7ZM78 156.7L80 156.7L80 155.7L78 155.7L78 156.7ZM80 156.7L82 156.7L82 155.7L80 155.7L80 156.7ZM83 156.7L85 156.7L85 155.7L83 155.7L83 156.7ZM86 156.7L88 156.7L88 155.7L86 155.7L86 156.7ZM88 156.7L90 156.7L90 155.7L88 155.7L88 156.7ZM91 156.7L93 156.7L93 155.7L91 155.7L91 156.7ZM94 156.7L96 156.7L96 155.7L94 155.7L94 156.7ZM96 156.7L98 156.7L98 155.7L96 155.7L96 156.7ZM99 156.7L101 156.7L101 155.7L99 155.7L99 156.7ZM102 156.7L104 156.7L104 155.7L102 155.7L102 156.7ZM104 156.7L106 156.7L106 155.7L104 155.7L104 156.7ZM107 156.7L109 156.7L109 155.7L107 155.7L107 156.7ZM110 156.7L112 156.7L112 155.7L110 155.7L110 156.7ZM112 156.7L114 156.7L114 155.7L112 155.7L112 156.7ZM115 156.7L117 156.7L117 155.7L115 155.7L115 156.7ZM118 156.7L120 156.7L120 155.7L118 155.7L118 156.7ZM120 156.7L122 156.7L122 155.7L120 155.7L120 156.7ZM123 156.7L125 156.7L125 155.7L123 155.7L123 156.7ZM126 156.7L128 156.7L128 155.7L126 155.7L126 156.7ZM128 156.7L130 156.7L130 155.7L128 155.7L128 156.7ZM131 156.7L133 156.7L133 155.7L131 155.7L131 156.7ZM134 156.7L136 156.7L136 155.7L134 155.7L134 156.7ZM136 156.7L138 156.7L138 155.7L136 155.7L136 156.7ZM139 156.7L141 156.7L141 155.7L139 155.7L139 156.7ZM142 156.7L144 156.7L144 155.7L142 155.7L142 156.7ZM144 156.7L146 156.7L146 155.7L144 155.7L144 156.7ZM147 156.7L149 156.7L149 155.7L147 155.7L147 156.7ZM150 156.7L152 156.7L152 155.7L150 155.7L150 156.7ZM152 156.7L154 156.7L154 155.7L152 155.7L152 156.7ZM155 156.7L157 156.7L157 155.7L155 155.7L155 156.7ZM158 156.7L160 156.7L160 155.7L158 155.7L158 156.7ZM160 156.7L162 156.7L162 155.7L160 155.7L160 156.7ZM163 156.7L165 156.7L165 155.7L163 155.7L163 156.7ZM166 156.7L168 156.7L168 155.7L166 155.7L166 156.7ZM168 156.7L170 156.7L170 155.7L168 155.7L168 156.7ZM171 156.7L173 156.7L173 155.7L171 155.7L171 156.7ZM174 156.7L176 156.7L176 155.7L174 155.7L174 156.7ZM176 156.7L178 156.7L178 155.7L176 155.7L176 156.7ZM179 156.7L181 156.7L181 155.7L179 155.7L179 156.7ZM182 156.7L184 156.7L184 155.7L182 155.7L182 156.7ZM184 156.7L186 156.7L186 155.7L184 155.7L184 156.7ZM187 156.7L189 156.7L189 155.7L187 155.7L187 156.7ZM190 156.7L192 156.7L192 155.7L190 155.7L190 156.7ZM192 156.7L194 156.7L194 155.7L192 155.7L192 156.7ZM195 156.7L197 156.7L197 155.7L195 155.7L195 156.7ZM198 156.7L200 156.7L200 155.7L198 155.7L198 156.7ZM200 156.7L202 156.7L202 155.7L200 155.7L200 156.7ZM203 156.7L205 156.7L205 155.7L203 155.7L203 156.7ZM206 156.7L208 156.7L208 155.7L206 155.7L206 156.7ZM208 156.7L210 156.7L210 155.7L208 155.7L208 156.7ZM211 156.7L213 156.7L213 155.7L211 155.7L211 156.7ZM214 156.7L216 156.7L216 155.7L214 155.7L214 156.7ZM216 156.7L218 156.7L218 155.7L216 155.7L216 156.7ZM219 156.7L221 156.7L221 155.7L219 155.7L219 156.7ZM222 156.7L224 156.7L224 155.7L222 155.7L222 156.7ZM224 156.7L226 156.7L226 155.7L224 155.7L224 156.7ZM227 156.7L229 156.7L229 155.7L227 155.7L227 156.7ZM230 156.7L232 156.7L232 155.7L230 155.7L230 156.7ZM232 156.7L234 156.7L234 155.7L232 155.7L232 156.7ZM235 156.7L237 156.7L237 155.7L235 155.7L235 156.7ZM238 156.7L240 156.7L240 155.7L238 155.7L238 156.7ZM240 156.7L242 156.7L242 155.7L240 155.7L240 156.7ZM243 156.7L245 156.7L245 155.7L243 155.7L243 156.7ZM246 156.7L248 156.7L248 155.7L246 155.7L246 156.7ZM248 156.7L250 156.7L250 155.7L248 155.7L248 156.7ZM251 156.7L253 156.7L253 155.7L251 155.7L251 156.7ZM254 156.7L256 156.7L256 155.7L254 155.7L254 156.7ZM256 156.7L258 156.7L258 155.7L256 155.7L256 156.7ZM259 156.7L261 156.7L261 155.7L259 155.7L259 156.7ZM262 156.7L264 156.7L264 155.7L262 155.7L262 156.7ZM264 156.7L266 156.7L266 155.7L264 155.7L264 156.7ZM267 156.7L269 156.7L269 155.7L267 155.7L267 156.7ZM270 156.7L272 156.7L272 155.7L270 155.7L270 156.7ZM272 156.7L274 156.7L274 155.7L272 155.7L272 156.7ZM275 156.7L277 156.7L277 155.7L275 155.7L275 156.7ZM278 156.7L280 156.7L280 155.7L278 155.7L278 156.7ZM280 156.7L282 156.7L282 155.7L280 155.7L280 156.7ZM283 156.7L285 156.7L285 155.7L283 155.7L283 156.7ZM286 156.7L288 156.7L288 155.7L286 155.7L286 156.7ZM288 156.7L290 156.7L290 155.7L288 155.7L288 156.7ZM291 156.7L293 156.7L293 155.7L291 155.7L291 156.7ZM294 156.7L296 156.7L296 155.7L294 155.7L294 156.7ZM296 156.7L298 156.7L298 155.7L296 155.7L296 156.7ZM299 156.7L301 156.7L301 155.7L299 155.7L299 156.7ZM302 156.7L304 156.7L304 155.7L302 155.7L302 156.7ZM304 156.7L306 156.7L306 155.7L304 155.7L304 156.7ZM307 156.7L309 156.7L309 155.7L307 155.7L307 156.7ZM310 156.7L312 156.7L312 155.7L310 155.7L310 156.7ZM312 156.7L314 156.7L314 155.7L312 155.7L312 156.7ZM315 156.7L317 156.7L317 155.7L315 155.7L315 156.7ZM318 156.7L320 156.7L320 155.7L318 155.7L318 156.7ZM320 156.7L322 156.7L322 155.7L320 155.7L320 156.7ZM323 156.7L325 156.7L325 155.7L323 155.7L323 156.7ZM326 156.7L328 156.7L328 155.7L326 155.7L326 156.7ZM328 156.7L330 156.7L330 155.7L328 155.7L328 156.7ZM331 156.7L333 156.7L333 155.7L331 155.7L331 156.7ZM334 156.7L336 156.7L336 155.7L334 155.7L334 156.7ZM336 156.7L338 156.7L338 155.7L336 155.7L336 156.7ZM339 156.7L341 156.7L341 155.7L339 155.7L339 156.7ZM342 156.7L344 156.7L344 155.7L342 155.7L342 156.7ZM344 156.7L346 156.7L346 155.7L344 155.7L344 156.7ZM347 156.7L349 156.7L349 155.7L347 155.7L347 156.7ZM350 156.7L352 156.7L352 155.7L350 155.7L350 156.7ZM352 156.7L354 156.7L354 155.7L352 155.7L352 156.7ZM355 156.7L357 156.7L357 155.7L355 155.7L355 156.7ZM358 156.7L360 156.7L360 155.7L358 155.7L358 156.7ZM360 156.7L362 156.7L362 155.7L360 155.7L360 156.7ZM363 156.7L365 156.7L365 155.7L363 155.7L363 156.7ZM366 156.7L368 156.7L368 155.7L366 155.7L366 156.7ZM368 156.7L370 156.7L370 155.7L368 155.7L368 156.7ZM371 156.7L373 156.7L373 155.7L371 155.7L371 156.7ZM374 156.7L376 156.7L376 155.7L374 155.7L374 156.7ZM383 148.7L376 148.7Q376 148.7 376 164.7L376 164.7L383 164.7Q383 164.7 383 148.7L383 148.7ZM391 148.7L384 148.7Q384 148.7 384 164.7L384 164.7L391 164.7Q391 164.7 391 148.7L391 148.7ZM399 148.7L392 148.7Q392 148.7 392 164.7L392 164.7L399 164.7Q399 164.7 399 148.7L399 148.7ZM407 148.7L400 148.7Q400 148.7 400 164.7L400 164.7L407 164.7Q407 164.7 407 148.7L407 148.7ZM415 148.7L408 148.7Q408 148.7 408 164.7L408 164.7L415 164.7Q415 164.7 415 148.7L415 148.7ZM423 148.7L416 148.7Q416 148.7 416 164.7L416 164.7L423 164.7Q423 164.7 423 148.7L423 148.7ZM424 156.7L426 156.7L426 155.7L424 155.7L424 156.7ZM427 156.7L429 156.7L429 155.7L427 155.7L427 156.7ZM430 156.7L432 156.7L432 155.7L430 155.7L430 156.7ZM439 148.7L432 148.7Q432 148.7 432 164.7L432 164.7L439 164.7Q439 164.7 439 148.7L439 148.7ZM447 148.7L440 148.7Q440 148.7 440 164.7L440 164.7L447 164.7Q447 164.7 447 148.7L447 148.7ZM455 148.7L448 148.7Q448 148.7 448 164.7L448 164.7L455 164.7Q455 164.7 455 148.7L455 148.7ZM463 148.7L456 148.7Q456 148.7 456 164.7L456 164.7L463 164.7Q463 164.7 463 148.7L463 148.7ZM471 148.7L464 148.7Q464 148.7 464 164.7L464 164.7L471 164.7Q471 164.7 471 148.7L471 148.7ZM479 148.7L472 148.7Q472 148.7 472 164.7L472 164.7L479 164.7Q479 164.7 479 148.7L479 148.7ZM498 162.7L503 162.7L503 161.7L501 161.7L501 152.7L500 152.7L500 153.7L499 153.7L499 154.7L498 154.7L498 155.7L499 155.7L499 154.7L500 154.7L500 161.7L498 161.7L498 162.7ZM510 159.7L511 159.7L511 158.7L510 158.7Q510 158.7 510 152.7L510 152.7L509 152.7L509 153.7L508 153.7L508 154.7L507 154.7L507 155.7L506 155.7L506 156.7L505 156.7L505 159.7L509 159.7L509 162.7L510 162.7L510 159.7ZM509 158.7L506 158.7Q506 158.7 506 156.7L506 156.7L507 156.7L507 155.7L508 155.7L508 154.7L509 154.7Q509 154.7 509 158.7L509 158.7ZM515 153.7L518 153.7L518 152.7L515 152.7L515 153.7L514 153.7L514 154.7L513 154.7L513 161.7L514 161.7L514 162.7L518 162.7L518 161.7L514 161.7Q514 161.7 514 157.7L514 157.7L518 157.7Q518 157.7 518 161.7L518 161.7L519 161.7Q519 161.7 519 157.7L519 157.7L518 157.7L518 156.7L514 156.7Q514 156.7 514 154.7L514 154.7L515 154.7L515 153.7Z M40 173.3L42 173.3L42 172.3L40 172.3L40 173.3ZM43 173.3L45 173.3L45 172.3L43 172.3L43 173.3ZM46 173.3L48 173.3L48 172.3L46 172.3L46 173.3ZM48 173.3L50 173.3L50 172.3L48 172.3L48 173.3ZM51 173.3L53 173.3L53 172.3L51 172.3L51 173.3ZM54 173.3L56 173.3L56 172.3L54 172.3L54 173.3ZM56 173.3L58 173.3L58 172.3L56 172.3L56 173.3ZM59 173.3L61 173.3L61 172.3L59 172.3L59 173.3ZM62 173.3L64 173.3L64 172.3L62 172.3L62 173.3ZM64 173.3L66 173.3L66 172.3L64 172.3L64 173.3ZM67 173.3L69 173.3L69 172.3L67 172.3L67 173.3ZM70 173.3L72 173.3L72 172.3L70 172.3L70 173.3ZM72 173.3L74 173.3L74 172.3L72 172.3L72 173.3ZM75 173.3L77 173.3L77 172.3L75 172.3L75 173.3ZM78 173.3L80 173.3L80 172.3L78 172.3L78 173.3ZM80 173.3L82 173.3L82 172.3L80 172.3L80 173.3ZM83 173.3L85 173.3L85 172.3L83 172.3L83 173.3ZM86 173.3L88 173.3L88 172.3L86 172.3L86 173.3ZM88 173.3L90 173.3L90 172.3L88 172.3L88 173.3ZM91 173.3L93 173.3L93 172.3L91 172.3L91 173.3ZM94 173.3L96 173.3L96 172.3L94 172.3L94 173.3ZM96 173.3L98 173.3L98 172.3L96 172.3L96 173.3ZM99 173.3L101 173.3L101 172.3L99 172.3L99 173.3ZM102 173.3L104 173.3L104 172.3L102 172.3L102 173.3ZM104 173.3L106 173.3L106 172.3L104 172.3L104 173.3ZM107 173.3L109 173.3L109 172.3L107 172.3L107 173.3ZM110 173.3L112 173.3L112 172.3L110 172.3L110 173.3ZM112 173.3L114 173.3L114 172.3L112 172.3L112 173.3ZM115 173.3L117 173.3L117 172.3L115 172.3L115 173.3ZM118 173.3L120 173.3L120 172.3L118 172.3L118 173.3ZM120 173.3L122 173.3L122 172.3L120 172.3L120 173.3ZM123 173.3L125 173.3L125 172.3L123 172.3L123 173.3ZM126 173.3L128 173.3L128 172.3L126 172.3L126 173.3ZM128 173.3L130 173.3L130 172.3L128 172.3L128 173.3ZM131 173.3L133 173.3L133 172.3L131 172.3L131 173.3ZM134 173.3L136 173.3L136 172.3L134 172.3L134 173.3ZM136 173.3L138 173.3L138 172.3L136 172.3L136 173.3ZM139 173.3L141 173.3L141 172.3L139 172.3L139 173.3ZM142 173.3L144 173.3L144 172.3L142 172.3L142 173.3ZM144 173.3L146 173.3L146 172.3L144 172.3L144 173.3ZM147 173.3L149 173.3L149 172.3L147 172.3L147 173.3ZM150 173.3L152 173.3L152 172.3L150 172.3L150 173.3ZM152 173.3L154 173.3L154 172.3L152 172.3L152 173.3ZM155 173.3L157 173.3L157 172.3L155 172.3L155 173.3ZM158 173.3L160 173.3L160 172.3L158 172.3L158 173.3ZM160 173.3L162 173.3L162 172.3L160 172.3L160 173.3ZM163 173.3L165 173.3L165 172.3L163 172.3L163 173.3ZM166 173.3L168 173.3L168 172.3L166 172.3L166 173.3ZM168 173.3L170 173.3L170 172.3L168 172.3L168 173.3ZM171 173.3L173 173.3L173 172.3L171 172.3L171 173.3ZM174 173.3L176 173.3L176 172.3L174 172.3L174 173.3ZM176 173.3L178 173.3L178 172.3L176 172.3L176 173.3ZM179 173.3L181 173.3L181 172.3L179 172.3L179 173.3ZM182 173.3L184 173.3L184 172.3L182 172.3L182 173.3ZM184 173.3L186 173.3L186 172.3L184 172.3L184 173.3ZM187 173.3L189 173.3L189 172.3L187 172.3L187 173.3ZM190 173.3L192 173.3L192 172.3L190 172.3L190 173.3ZM192 173.3L194 173.3L194 172.3L192 172.3L192 173.3ZM195 173.3L197 173.3L197 172.3L195 172.3L195 173.3ZM198 173.3L200 173.3L200 172.3L198 172.3L198 173.3ZM200 173.3L202 173.3L202 172.3L200 172.3L200 173.3ZM203 173.3L205 173.3L205 172.3L203 172.3L203 173.3ZM206 173.3L208 173.3L208 172.3L206 172.3L206 173.3ZM208 173.3L210 173.3L210 172.3L208 172.3L208 173.3ZM211 173.3L213 173.3L213 172.3L211 172.3L211 173.3ZM214 173.3L216 173.3L216 172.3L214 172.3L214 173.3ZM216 173.3L218 173.3L218 172.3L216 172.3L216 173.3ZM219 173.3L221 173.3L221 172.3L219 172.3L219 173.3ZM222 173.3L224 173.3L224 172.3L222 172.3L222 173.3ZM224 173.3L226 173.3L226 172.3L224 172.3L224 173.3ZM227 173.3L229 173.3L229 172.3L227 172.3L227 173.3ZM230 173.3L232 173.3L232 172.3L230 172.3L230 173.3ZM232 173.3L234 173.3L234 172.3L232 172.3L232 173.3ZM235 173.3L237 173.3L237 172.3L235 172.3L235 173.3ZM238 173.3L240 173.3L240 172.3L238 172.3L238 173.3ZM240 173.3L242 173.3L242 172.3L240 172.3L240 173.3ZM243 173.3L245 173.3L245 172.3L243 172.3L243 173.3ZM246 173.3L248 173.3L248 172.3L246 172.3L246 173.3ZM248 173.3L250 173.3L250 172.3L248 172.3L248 173.3ZM251 173.3L253 173.3L253 172.3L251 172.3L251 173.3ZM254 173.3L256 173.3L256 172.3L254 172.3L254 173.3ZM256 173.3L258 173.3L258 172.3L256 172.3L256 173.3ZM259 173.3L261 173.3L261 172.3L259 172.3L259 173.3ZM262 173.3L264 173.3L264 172.3L262 172.3L262 173.3ZM264 173.3L266 173.3L266 172.3L264 172.3L264 173.3ZM267 173.3L269 173.3L269 172.3L267 172.3L267 173.3ZM270 173.3L272 173.3L272 172.3L270 172.3L270 173.3ZM272 173.3L274 173.3L274 172.3L272 172.3L272 173.3ZM275 173.3L277 173.3L277 172.3L275 172.3L275 173.3ZM278 173.3L280 173.3L280 172.3L278 172.3L278 173.3ZM280 173.3L282 173.3L282 172.3L280 172.3L280 173.3ZM283 173.3L285 173.3L285 172.3L283 172.3L283 173.3ZM286 173.3L288 173.3L288 172.3L286 172.3L286 173.3ZM288 173.3L290 173.3L290 172.3L288 172.3L288 173.3ZM291 173.3L293 173.3L293 172.3L291 172.3L291 173.3ZM294 173.3L296 173.3L296 172.3L294 172.3L294 173.3ZM296 173.3L298 173.3L298 172.3L296 172.3L296 173.3ZM299 173.3L301 173.3L301 172.3L299 172.3L299 173.3ZM302 173.3L304 173.3L304 172.3L302 172.3L302 173.3ZM304 173.3L306 173.3L306 172.3L304 172.3L304 173.3ZM307 173.3L309 173.3L309 172.3L307 172.3L307 173.3ZM310 173.3L312 173.3L312 172.3L310 172.3L310 173.3ZM312 173.3L314 173.3L314 172.3L312 172.3L312 173.3ZM315 173.3L317 173.3L317 172.3L315 172.3L315 173.3ZM318 173.3L320 173.3L320 172.3L318 172.3L318 173.3ZM327 165.3L320 165.3Q320 165.3 320 181.3L320 181.3L327 181.3Q327 181.3 327 165.3L327 165.3ZM335 165.3L328 165.3Q328 165.3 328 181.3L328 181.3L335 181.3Q335 181.3 335 165.3L335 165.3ZM343 165.3L336 165.3Q336 165.3 336 181.3L336 181.3L343 181.3Q343 181.3 343 165.3L343 165.3ZM351 165.3L344 165.3Q344 165.3 344 181.3L344 181.3L351 181.3Q351 181.3 351 165.3L351 165.3ZM359 165.3L352 165.3Q352 165.3 352 181.3L352 181.3L359 181.3Q359 181.3 359 165.3L359 165.3ZM367 165.3L360 165.3Q360 165.3 360 181.3L360 181.3L367 181.3Q367 181.3 367 165.3L367 165.3ZM368 173.3L370 173.3L370 172.3L368 172.3L368 173.3ZM371 173.3L373 173.3L373 172.3L371 172.3L371 173.3ZM374 173.3L376 173.3L376 172.3L374 172.3L374 173.3ZM383 165.3L376 165.3Q376 165.3 376 181.3L376 181.3L383 181.3Q383 181.3 383 165.3L383 165.3ZM391 165.3L384 165.3Q384 165.3 384 181.3L384 181.3L391 181.3Q391 181.3 391 165.3L391 165.3ZM399 165.3L392 165.3Q392 165.3 392 181.3L392 181.3L399 181.3Q399 181.3 399 165.3L399 165.3ZM407 165.3L400 165.3Q400 165.3 400 181.3L400 181.3L407 181.3Q407 181.3 407 165.3L407 165.3ZM415 165.3L408 165.3Q408 165.3 408 181.3L408 181.3L415 181.3Q415 181.3 415 165.3L415 165.3ZM423 165.3L416 165.3Q416 165.3 416 181.3L416 181.3L423 181.3Q423 181.3 423 165.3L423 165.3ZM424 173.3L426 173.3L426 172.3L424 172.3L424 173.3ZM427 173.3L429 173.3L429 172.3L427 172.3L427 173.3ZM430 173.3L432 173.3L432 172.3L430 172.3L430 173.3ZM439 165.3L432 165.3Q432 165.3 432 181.3L432 181.3L439 181.3Q439 181.3 439 165.3L439 165.3ZM447 165.3L440 165.3Q440 165.3 440 181.3L440 181.3L447 181.3Q447 181.3 447 165.3L447 165.3ZM455 165.3L448 165.3Q448 165.3 448 181.3L448 181.3L455 181.3Q455 181.3 455 165.3L455 165.3ZM463 165.3L456 165.3Q456 165.3 456 181.3L456 181.3L463 181.3Q463 181.3 463 165.3L463 165.3ZM471 165.3L464 165.3Q464 165.3 464 181.3L464 181.3L471 181.3Q471 181.3 471 165.3L471 165.3ZM479 165.3L472 165.3Q472 165.3 472 181.3L472 181.3L479 181.3Q479 181.3 479 165.3L479 165.3ZM498 179.3L503 179.3L503 178.3L501 178.3L501 169.3L500 169.3L500 170.3L499 170.3L499 171.3L498 171.3L498 172.3L499 172.3L499 171.3L500 171.3L500 178.3L498 178.3L498 179.3ZM505 179.3L511 179.3L511 178.3L506 178.3Q506 178.3 506 176.3L506 176.3L505 176.3L505 179.3ZM506 175.3L506 176.3L507 176.3L507 175.3L506 175.3ZM507 174.3L507 175.3L508 175.3L508 174.3L507 174.3ZM508 173.3L508 174.3L510 174.3L510 173.3L508 173.3ZM510 170.3L510 173.3L511 173.3L511 170.3L510 170.3ZM506 170.3L505 170.3Q505 170.3 505 172.3L505 172.3L506 172.3Q506 172.3 506 170.3L506 170.3ZM506 169.3L506 170.3L510 170.3L510 169.3L506 169.3ZM517 175.3L516 175.3Q516 175.3 516 179.3L516 179.3L517 179.3Q517 179.3 517 175.3L517 175.3ZM517 172.3L517 175.3L518 175.3L518 172.3L517 172.3ZM518 172.3L518 172.3L519 172.3L519 169.3L513 169.3L513 170.3L518 170.3Q518 170.3 518 172.3Z M40 190.0L42 190.0L42 189.0L40 189.0L40 190.0ZM43 190.0L45 190.0L45 189.0L43 189.0L43 190.0ZM46 190.0L48 190.0L48 189.0L46 189.0L46 190.0ZM48 190.0L50 190.0L50 189.0L48 189.0L48 190.0ZM51 190.0L53 190.0L53 189.0L51 189.0L51 190.0ZM54 190.0L56 190.0L56 189.0L54 189.0L54 190.0ZM56 190.0L58 190.0L58 189.0L56 189.0L56 190.0ZM59 190.0L61 190.0L61 189.0L59 189.0L59 190.0ZM62 190.0L64 190.0L64 189.0L62 189.0L62 190.0ZM64 190.0L66 190.0L66 189.0L64 189.0L64 190.0ZM67 190.0L69 190.0L69 189.0L67 189.0L67 190.0ZM70 190.0L72 190.0L72 189.0L70 189.0L70 190.0ZM72 190.0L74 190.0L74 189.0L72 189.0L72 190.0ZM75 190.0L77 190.0L77 189.0L75 189.0L75 190.0ZM78 190.0L80 190.0L80 189.0L78 189.0L78 190.0ZM80 190.0L82 190.0L82 189.0L80 189.0L80 190.0ZM83 190.0L85 190.0L85 189.0L83 189.0L83 190.0ZM86 190.0L88 190.0L88 189.0L86 189.0L86 190.0ZM88 190.0L90 190.0L90 189.0L88 189.0L88 190.0ZM91 190.0L93 190.0L93 189.0L91 189.0L91 190.0ZM94 190.0L96 190.0L96 189.0L94 189.0L94 190.0ZM96 190.0L98 190.0L98 189.0L96 189.0L96 190.0ZM99 190.0L101 190.0L101 189.0L99 189.0L99 190.0ZM102 190.0L104 190.0L104 189.0L102 189.0L102 190.0ZM104 190.0L106 190.0L106 189.0L104 189.0L104 190.0ZM107 190.0L109 190.0L109 189.0L107 189.0L107 190.0ZM110 190.0L112 190.0L112 189.0L110 189.0L110 190.0ZM112 190.0L114 190.0L114 189.0L112 189.0L112 190.0ZM115 190.0L117 190.0L117 189.0L115 189.0L115 190.0ZM118 190.0L120 190.0L120 189.0L118 189.0L118 190.0ZM120 190.0L122 190.0L122 189.0L120 189.0L120 190.0ZM123 190.0L125 190.0L125 189.0L123 189.0L123 190.0ZM126 190.0L128 190.0L128 189.0L126 189.0L126 190.0ZM128 190.0L130 190.0L130 189.0L128 189.0L128 190.0ZM131 190.0L133 190.0L133 189.0L131 189.0L131 190.0ZM134 190.0L136 190.0L136 189.0L134 189.0L134 190.0ZM136 190.0L138 190.0L138 189.0L136 189.0L136 190.0ZM139 190.0L141 190.0L141 189.0L139 189.0L139 190.0ZM142 190.0L144 190.0L144 189.0L142 189.0L142 190.0ZM144 190.0L146 190.0L146 189.0L144 189.0L144 190.0ZM147 190.0L149 190.0L149 189.0L147 189.0L147 190.0ZM150 190.0L152 190.0L152 189.0L150 189.0L150 190.0ZM152 190.0L154 190.0L154 189.0L152 189.0L152 190.0ZM155 190.0L157 190.0L157 189.0L155 189.0L155 190.0ZM158 190.0L160 190.0L160 189.0L158 189.0L158 190.0ZM160 190.0L162 190.0L162 189.0L160 189.0L160 190.0ZM163 190.0L165 190.0L165 189.0L163 189.0L163 190.0ZM166 190.0L168 190.0L168 189.0L166 189.0L166 190.0ZM168 190.0L170 190.0L170 189.0L168 189.0L168 190.0ZM171 190.0L173 190.0L173 189.0L171 189.0L171 190.0ZM174 190.0L176 190.0L176 189.0L174 189.0L174 190.0ZM176 190.0L178 190.0L178 189.0L176 189.0L176 190.0ZM179 190.0L181 190.0L181 189.0L179 189.0L179 190.0ZM182 190.0L184 190.0L184 189.0L182 189.0L182 190.0ZM184 190.0L186 190.0L186 189.0L184 189.0L184 190.0ZM187 190.0L189 190.0L189 189.0L187 189.0L187 190.0ZM190 190.0L192 190.0L192 189.0L190 189.0L190 190.0ZM192 190.0L194 190.0L194 189.0L192 189.0L192 190.0ZM195 190.0L197 190.0L197 189.0L195 189.0L195 190.0ZM198 190.0L200 190.0L200 189.0L198 189.0L198 190.0ZM200 190.0L202 190.0L202 189.0L200 189.0L200 190.0ZM203 190.0L205 190.0L205 189.0L203 189.0L203 190.0ZM206 190.0L208 190.0L208 189.0L206 189.0L206 190.0ZM208 190.0L210 190.0L210 189.0L208 189.0L208 190.0ZM211 190.0L213 190.0L213 189.0L211 189.0L211 190.0ZM214 190.0L216 190.0L216 189.0L214 189.0L214 190.0ZM216 190.0L218 190.0L218 189.0L216 189.0L216 190.0ZM219 190.0L221 190.0L221 189.0L219 189.0L219 190.0ZM222 190.0L224 190.0L224 189.0L222 189.0L222 190.0ZM224 190.0L226 190.0L226 189.0L224 189.0L224 190.0ZM227 190.0L229 190.0L229 189.0L227 189.0L227 190.0ZM230 190.0L232 190.0L232 189.0L230 189.0L230 190.0ZM232 190.0L234 190.0L234 189.0L232 189.0L232 190.0ZM235 190.0L237 190.0L237 189.0L235 189.0L235 190.0ZM238 190.0L240 190.0L240 189.0L238 189.0L238 190.0ZM240 190.0L242 190.0L242 189.0L240 189.0L240 190.0ZM243 190.0L245 190.0L245 189.0L243 189.0L243 190.0ZM246 190.0L248 190.0L248 189.0L246 189.0L246 190.0ZM248 190.0L250 190.0L250 189.0L248 189.0L248 190.0ZM251 190.0L253 190.0L253 189.0L251 189.0L251 190.0ZM254 190.0L256 190.0L256 189.0L254 189.0L254 190.0ZM256 190.0L258 190.0L258 189.0L256 189.0L256 190.0ZM259 190.0L261 190.0L261 189.0L259 189.0L259 190.0ZM262 190.0L264 190.0L264 189.0L262 189.0L262 190.0ZM271 182.0L264 182.0Q264 182.0 264 198.0L264 198.0L271 198.0Q271 198.0 271 182.0L271 182.0ZM279 182.0L272 182.0Q272 182.0 272 198.0L272 198.0L279 198.0Q279 198.0 279 182.0L279 182.0ZM287 182.0L280 182.0Q280 182.0 280 198.0L280 198.0L287 198.0Q287 198.0 287 182.0L287 182.0ZM295 182.0L288 182.0Q288 182.0 288 198.0L288 198.0L295 198.0Q295 198.0 295 182.0L295 182.0ZM303 182.0L296 182.0Q296 182.0 296 198.0L296 198.0L303 198.0Q303 198.0 303 182.0L303 182.0ZM311 182.0L304 182.0Q304 182.0 304 198.0L304 198.0L311 198.0Q311 198.0 311 182.0L311 182.0ZM312 190.0L314 190.0L314 189.0L312 189.0L312 190.0ZM315 190.0L317 190.0L317 189.0L315 189.0L315 190.0ZM318 190.0L320 190.0L320 189.0L318 189.0L318 190.0ZM327 182.0L320 182.0Q320 182.0 320 198.0L320 198.0L327 198.0Q327 198.0 327 182.0L327 182.0ZM335 182.0L328 182.0Q328 182.0 328 198.0L328 198.0L335 198.0Q335 198.0 335 182.0L335 182.0ZM343 182.0L336 182.0Q336 182.0 336 198.0L336 198.0L343 198.0Q343 198.0 343 182.0L343 182.0ZM351 182.0L344 182.0Q344 182.0 344 198.0L344 198.0L351 198.0Q351 198.0 351 182.0L351 182.0ZM359 182.0L352 182.0Q352 182.0 352 198.0L352 198.0L359 198.0Q359 198.0 359 182.0L359 182.0ZM367 182.0L360 182.0Q360 182.0 360 198.0L360 198.0L367 198.0Q367 198.0 367 182.0L367 182.0ZM368 190.0L370 190.0L370 189.0L368 189.0L368 190.0ZM371 190.0L373 190.0L373 189.0L371 189.0L371 190.0ZM374 190.0L376 190.0L376 189.0L374 189.0L374 190.0ZM383 182.0L376 182.0Q376 182.0 376 198.0L376 198.0L383 198.0Q383 198.0 383 182.0L383 182.0ZM391 182.0L384 182.0Q384 182.0 384 198.0L384 198.0L391 198.0Q391 198.0 391 182.0L391 182.0ZM399 182.0L392 182.0Q392 182.0 392 198.0L392 198.0L399 198.0Q399 198.0 399 182.0L399 182.0ZM407 182.0L400 182.0Q400 182.0 400 198.0L400 198.0L407 198.0Q407 198.0 407 182.0L407 182.0ZM415 182.0L408 182.0Q408 182.0 408 198.0L408 198.0L415 198.0Q415 198.0 415 182.0L415 182.0ZM423 182.0L416 182.0Q416 182.0 416 198.0L416 198.0L423 198.0Q423 198.0 423 182.0L423 182.0ZM424 190.0L426 190.0L426 189.0L424 189.0L424 190.0ZM427 190.0L429 190.0L429 189.0L427 189.0L427 190.0ZM430 190.0L432 190.0L432 189.0L430 189.0L430 190.0ZM439 182.0L432 182.0Q432 182.0 432 198.0L432 198.0L439 198.0Q439 198.0 439 182.0L439 182.0ZM447 182.0L440 182.0Q440 182.0 440 198.0L440 198.0L447 198.0Q447 198.0 447 182.0L447 182.0ZM455 182.0L448 182.0Q448 182.0 448 198.0L448 198.0L455 198.0Q455 198.0 455 182.0L455 182.0ZM463 182.0L456 182.0Q456 182.0 456 198.0L456 198.0L463 198.0Q463 198.0 463 182.0L463 182.0ZM471 182.0L464 182.0Q464 182.0 464 198.0L464 198.0L471 198.0Q471 198.0 471 182.0L471 182.0ZM479 182.0L472 182.0Q472 182.0 472 198.0L472 198.0L479 198.0Q479 198.0 479 182.0L479 182.0ZM498 196.0L503 196.0L503 195.0L501 195.0L501 186.0L500 186.0L500 187.0L499 187.0L499 188.0L498 188.0L498 189.0L499 189.0L499 188.0L500 188.0L500 195.0L498 195.0L498 196.0ZM509 195.0L507 195.0L507 196.0L509 196.0L509 195.0ZM506 195.0L507 195.0L507 194.0L506 194.0L506 195.0ZM509 194.0L509 195.0L510 195.0L510 194.0L509 194.0ZM505 194.0L506 194.0L506 193.0L507 193.0L507 192.0L506 192.0Q506 192.0 506 188.0L506 188.0L505 188.0Q505 188.0 505 194.0L505 194.0ZM510 194.0L510 194.0L511 194.0Q511 194.0 511 188.0L511 188.0L510 188.0L510 189.0L509 189.0L509 190.0L508 190.0L508 191.0L507 191.0L507 192.0L508 192.0L508 191.0L509 191.0L509 190.0L510 190.0Q510 190.0 510 194.0ZM506 187.0L506 188.0L507 188.0L507 187.0L506 187.0ZM509 188.0L510 188.0L510 187.0L509 187.0L509 188.0ZM507 186.0L507 187.0L509 187.0L509 186.0L507 186.0ZM517 196.0L517 195.0L514 195.0L514 196.0L517 196.0ZM517 194.0L517 195.0L518 195.0L518 194.0L517 194.0ZM518 191.0L518 194.0L519 194.0L519 187.0L518 187.0L518 190.0L514 190.0L514 191.0L518 191.0ZM513 190.0L514 190.0L514 187.0L513 187.0L513 190.0ZM514 186.0L514 187.0L518 187.0L518 186.0L514 186.0Z M40 206.7L42 206.7L42 205.7L40 205.7L40 206.7ZM43 206.7L45 206.7L45 205.7L43 205.7L43 206.7ZM46 206.7L48 206.7L48 205.7L46 205.7L46 206.7ZM48 206.7L50 206.7L50 205.7L48 205.7L48 206.7ZM51 206.7L53 206.7L53 205.7L51 205.7L51 206.7ZM54 206.7L56 206.7L56 205.7L54 205.7L54 206.7ZM56 206.7L58 206.7L58 205.7L56 205.7L56 206.7ZM59 206.7L61 206.7L61 205.7L59 205.7L59 206.7ZM62 206.7L64 206.7L64 205.7L62 205.7L62 206.7ZM64 206.7L66 206.7L66 205.7L64 205.7L64 206.7ZM67 206.7L69 206.7L69 205.7L67 205.7L67 206.7ZM70 206.7L72 206.7L72 205.7L70 205.7L70 206.7ZM72 206.7L74 206.7L74 205.7L72 205.7L72 206.7ZM75 206.7L77 206.7L77 205.7L75 205.7L75 206.7ZM78 206.7L80 206.7L80 205.7L78 205.7L78 206.7ZM80 206.7L82 206.7L82 205.7L80 205.7L80 206.7ZM83 206.7L85 206.7L85 205.7L83 205.7L83 206.7ZM86 206.7L88 206.7L88 205.7L86 205.7L86 206.7ZM88 206.7L90 206.7L90 205.7L88 205.7L88 206.7ZM91 206.7L93 206.7L93 205.7L91 205.7L91 206.7ZM94 206.7L96 206.7L96 205.7L94 205.7L94 206.7ZM96 206.7L98 206.7L98 205.7L96 205.7L96 206.7ZM99 206.7L101 206.7L101 205.7L99 205.7L99 206.7ZM102 206.7L104 206.7L104 205.7L102 205.7L102 206.7ZM104 206.7L106 206.7L106 205.7L104 205.7L104 206.7ZM107 206.7L109 206.7L109 205.7L107 205.7L107 206.7ZM110 206.7L112 206.7L112 205.7L110 205.7L110 206.7ZM112 206.7L114 206.7L114 205.7L112 205.7L112 206.7ZM115 206.7L117 206.7L117 205.7L115 205.7L115 206.7ZM118 206.7L120 206.7L120 205.7L118 205.7L118 206.7ZM120 206.7L122 206.7L122 205.7L120 205.7L120 206.7ZM123 206.7L125 206.7L125 205.7L123 205.7L123 206.7ZM126 206.7L128 206.7L128 205.7L126 205.7L126 206.7ZM128 206.7L130 206.7L130 205.7L128 205.7L128 206.7ZM131 206.7L133 206.7L133 205.7L131 205.7L131 206.7ZM134 206.7L136 206.7L136 205.7L134 205.7L134 206.7ZM136 206.7L138 206.7L138 205.7L136 205.7L136 206.7ZM139 206.7L141 206.7L141 205.7L139 205.7L139 206.7ZM142 206.7L144 206.7L144 205.7L142 205.7L142 206.7ZM144 206.7L146 206.7L146 205.7L144 205.7L144 206.7ZM147 206.7L149 206.7L149 205.7L147 205.7L147 206.7ZM150 206.7L152 206.7L152 205.7L150 205.7L150 206.7ZM152 206.7L154 206.7L154 205.7L152 205.7L152 206.7ZM155 206.7L157 206.7L157 205.7L155 205.7L155 206.7ZM158 206.7L160 206.7L160 205.7L158 205.7L158 206.7ZM160 206.7L162 206.7L162 205.7L160 205.7L160 206.7ZM163 206.7L165 206.7L165 205.7L163 205.7L163 206.7ZM166 206.7L168 206.7L168 205.7L166 205.7L166 206.7ZM168 206.7L170 206.7L170 205.7L168 205.7L168 206.7ZM171 206.7L173 206.7L173 205.7L171 205.7L171 206.7ZM174 206.7L176 206.7L176 205.7L174 205.7L174 206.7ZM176 206.7L178 206.7L178 205.7L176 205.7L176 206.7ZM179 206.7L181 206.7L181 205.7L179 205.7L179 206.7ZM182 206.7L184 206.7L184 205.7L182 205.7L182 206.7ZM184 206.7L186 206.7L186 205.7L184 205.7L184 206.7ZM187 206.7L189 206.7L189 205.7L187 205.7L187 206.7ZM190 206.7L192 206.7L192 205.7L190 205.7L190 206.7ZM192 206.7L194 206.7L194 205.7L192 205.7L192 206.7ZM195 206.7L197 206.7L197 205.7L195 205.7L195 206.7ZM198 206.7L200 206.7L200 205.7L198 205.7L198 206.7ZM200 206.7L202 206.7L202 205.7L200 205.7L200 206.7ZM203 206.7L205 206.7L205 205.7L203 205.7L203 206.7ZM206 206.7L208 206.7L208 205.7L206 205.7L206 206.7ZM215 198.7L208 198.7Q208 198.7 208 214.7L208 214.7L215 214.7Q215 214.7 215 198.7L215 198.7ZM223 198.7L216 198.7Q216 198.7 216 214.7L216 214.7L223 214.7Q223 214.7 223 198.7L223 198.7ZM231 198.7L224 198.7Q224 198.7 224 214.7L224 214.7L231 214.7Q231 214.7 231 198.7L231 198.7ZM239 198.7L232 198.7Q232 198.7 232 214.7L232 214.7L239 214.7Q239 214.7 239 198.7L239 198.7ZM247 198.7L240 198.7Q240 198.7 240 214.7L240 214.7L247 214.7Q247 214.7 247 198.7L247 198.7ZM255 198.7L248 198.7Q248 198.7 248 214.7L248 214.7L255 214.7Q255 214.7 255 198.7L255 198.7ZM256 206.7L258 206.7L258 205.7L256 205.7L256 206.7ZM259 206.7L261 206.7L261 205.7L259 205.7L259 206.7ZM262 206.7L264 206.7L264 205.7L262 205.7L262 206.7ZM271 198.7L264 198.7Q264 198.7 264 214.7L264 214.7L271 214.7Q271 214.7 271 198.7L271 198.7ZM279 198.7L272 198.7Q272 198.7 272 214.7L272 214.7L279 214.7Q279 214.7 279 198.7L279 198.7ZM287 198.7L280 198.7Q280 198.7 280 214.7L280 214.7L287 214.7Q287 214.7 287 198.7L287 198.7ZM295 198.7L288 198.7Q288 198.7 288 214.7L288 214.7L295 214.7Q295 214.7 295 198.7L295 198.7ZM303 198.7L296 198.7Q296 198.7 296 214.7L296 214.7L303 214.7Q303 214.7 303 198.7L303 198.7ZM311 198.7L304 198.7Q304 198.7 304 214.7L304 214.7L311 214.7Q311 214.7 311 198.7L311 198.7ZM312 206.7L314 206.7L314 205.7L312 205.7L312 206.7ZM315 206.7L317 206.7L317 205.7L315 205.7L315 206.7ZM318 206.7L320 206.7L320 205.7L318 205.7L318 206.7ZM327 198.7L320 198.7Q320 198.7 320 214.7L320 214.7L327 214.7Q327 214.7 327 198.7L327 198.7ZM335 198.7L328 198.7Q328 198.7 328 214.7L328 214.7L335 214.7Q335 214.7 335 198.7L335 198.7ZM343 198.7L336 198.7Q336 198.7 336 214.7L336 214.7L343 214.7Q343 214.7 343 198.7L343 198.7ZM351 198.7L344 198.7Q344 198.7 344 214.7L344 214.7L351 214.7Q351 214.7 351 198.7L351 198.7ZM359 198.7L352 198.7Q352 198.7 352 214.7L352 214.7L359 214.7Q359 214.7 359 198.7L359 198.7ZM367 198.7L360 198.7Q360 198.7 360 214.7L360 214.7L367 214.7Q367 214.7 367 198.7L367 198.7ZM368 206.7L370 206.7L370 205.7L368 205.7L368 206.7ZM371 206.7L373 206.7L373 205.7L371 205.7L371 206.7ZM374 206.7L376 206.7L376 205.7L374 205.7L374 206.7ZM383 198.7L376 198.7Q376 198.7 376 214.7L376 214.7L383 214.7Q383 214.7 383 198.7L383 198.7ZM391 198.7L384 198.7Q384 198.7 384 214.7L384 214.7L391 214.7Q391 214.7 391 198.7L391 198.7ZM399 198.7L392 198.7Q392 198.7 392 214.7L392 214.7L399 214.7Q399 214.7 399 198.7L399 198.7ZM407 198.7L400 198.7Q400 198.7 400 214.7L400 214.7L407 214.7Q407 214.7 407 198.7L407 198.7ZM415 198.7L408 198.7Q408 198.7 408 214.7L408 214.7L415 214.7Q415 214.7 415 198.7L415 198.7ZM423 198.7L416 198.7Q416 198.7 416 214.7L416 214.7L423 214.7Q423 214.7 423 198.7L423 198.7ZM424 206.7L426 206.7L426 205.7L424 205.7L424 206.7ZM427 206.7L429 206.7L429 205.7L427 205.7L427 206.7ZM430 206.7L432 206.7L432 205.7L430 205.7L430 206.7ZM439 198.7L432 198.7Q432 198.7 432 214.7L432 214.7L439 214.7Q439 214.7 439 198.7L439 198.7ZM447 198.7L440 198.7Q440 198.7 440 214.7L440 214.7L447 214.7Q447 214.7 447 198.7L447 198.7ZM455 198.7L448 198.7Q448 198.7 448 214.7L448 214.7L455 214.7Q455 214.7 455 198.7L455 198.7ZM463 198.7L456 198.7Q456 198.7 456 214.7L456 214.7L463 214.7Q463 214.7 463 198.7L463 198.7ZM471 198.7L464 198.7Q464 198.7 464 214.7L464 214.7L471 214.7Q471 214.7 471 198.7L471 198.7ZM479 198.7L472 198.7Q472 198.7 472 214.7L472 214.7L479 214.7Q479 214.7 479 198.7L479 198.7ZM501 212.7L501 211.7L498 211.7L498 212.7L501 212.7ZM501 210.7L501 211.7L502 211.7L502 210.7L501 210.7ZM502 207.7L502 210.7L503 210.7L503 203.7L502 203.7L502 206.7L498 206.7L498 207.7L502 207.7ZM497 206.7L498 206.7L498 203.7L497 203.7L497 206.7ZM498 202.7L498 203.7L502 203.7L502 202.7L498 202.7ZM506 212.7L511 212.7L511 211.7L509 211.7L509 202.7L508 202.7L508 203.7L507 203.7L507 204.7L506 204.7L506 205.7L507 205.7L507 204.7L508 204.7L508 211.7L506 211.7L506 212.7Z M40 223.3L42 223.3L42 222.3L40 222.3L40 223.3ZM43 223.3L45 223.3L45 222.3L43 222.3L43 223.3ZM46 223.3L48 223.3L48 222.3L46 222.3L46 223.3ZM48 223.3L50 223.3L50 222.3L48 222.3L48 223.3ZM51 223.3L53 223.3L53 222.3L51 222.3L51 223.3ZM54 223.3L56 223.3L56 222.3L54 222.3L54 223.3ZM56 223.3L58 223.3L58 222.3L56 222.3L56 223.3ZM59 223.3L61 223.3L61 222.3L59 222.3L59 223.3ZM62 223.3L64 223.3L64 222.3L62 222.3L62 223.3ZM64 223.3L66 223.3L66 222.3L64 222.3L64 223.3ZM67 223.3L69 223.3L69 222.3L67 222.3L67 223.3ZM70 223.3L72 223.3L72 222.3L70 222.3L70 223.3ZM72 223.3L74 223.3L74 222.3L72 222.3L72 223.3ZM75 223.3L77 223.3L77 222.3L75 222.3L75 223.3ZM78 223.3L80 223.3L80 222.3L78 222.3L78 223.3ZM80 223.3L82 223.3L82 222.3L80 222.3L80 223.3ZM83 223.3L85 223.3L85 222.3L83 222.3L83 223.3ZM86 223.3L88 223.3L88 222.3L86 222.3L86 223.3ZM88 223.3L90 223.3L90 222.3L88 222.3L88 223.3ZM91 223.3L93 223.3L93 222.3L91 222.3L91 223.3ZM94 223.3L96 223.3L96 222.3L94 222.3L94 223.3ZM96 223.3L98 223.3L98 222.3L96 222.3L96 223.3ZM99 223.3L101 223.3L101 222.3L99 222.3L99 223.3ZM102 223.3L104 223.3L104 222.3L102 222.3L102 223.3ZM104 223.3L106 223.3L106 222.3L104 222.3L104 223.3ZM107 223.3L109 223.3L109 222.3L107 222.3L107 223.3ZM110 223.3L112 223.3L112 222.3L110 222.3L110 223.3ZM112 223.3L114 223.3L114 222.3L112 222.3L112 223.3ZM115 223.3L117 223.3L117 222.3L115 222.3L115 223.3ZM118 223.3L120 223.3L120 222.3L118 222.3L118 223.3ZM120 223.3L122 223.3L122 222.3L120 222.3L120 223.3ZM123 223.3L125 223.3L125 222.3L123 222.3L123 223.3ZM126 223.3L128 223.3L128 222.3L126 222.3L126 223.3ZM128 223.3L130 223.3L130 222.3L128 222.3L128 223.3ZM131 223.3L133 223.3L133 222.3L131 222.3L131 223.3ZM134 223.3L136 223.3L136 222.3L134 222.3L134 223.3ZM136 223.3L138 223.3L138 222.3L136 222.3L136 223.3ZM139 223.3L141 223.3L141 222.3L139 222.3L139 223.3ZM142 223.3L144 223.3L144 222.3L142 222.3L142 223.3ZM144 223.3L146 223.3L146 222.3L144 222.3L144 223.3ZM147 223.3L149 223.3L149 222.3L147 222.3L147 223.3ZM150 223.3L152 223.3L152 222.3L150 222.3L150 223.3ZM159 215.3L152 215.3Q152 215.3 152 231.3L152 231.3L159 231.3Q159 231.3 159 215.3L159 215.3ZM167 215.3L160 215.3Q160 215.3 160 231.3L160 231.3L167 231.3Q167 231.3 167 215.3L167 215.3ZM175 215.3L168 215.3Q168 215.3 168 231.3L168 231.3L175 231.3Q175 231.3 175 215.3L175 215.3ZM183 215.3L176 215.3Q176 215.3 176 231.3L176 231.3L183 231.3Q183 231.3 183 215.3L183 215.3ZM191 215.3L184 215.3Q184 215.3 184 231.3L184 231.3L191 231.3Q191 231.3 191 215.3L191 215.3ZM199 215.3L192 215.3Q192 215.3 192 231.3L192 231.3L199 231.3Q199 231.3 199 215.3L199 215.3ZM200 223.3L202 223.3L202 222.3L200 222.3L200 223.3ZM203 223.3L205 223.3L205 222.3L203 222.3L203 223.3ZM206 223.3L208 223.3L208 222.3L206 222.3L206 223.3ZM215 215.3L208 215.3Q208 215.3 208 231.3L208 231.3L215 231.3Q215 231.3 215 215.3L215 215.3ZM223 215.3L216 215.3Q216 215.3 216 231.3L216 231.3L223 231.3Q223 231.3 223 215.3L223 215.3ZM231 215.3L224 215.3Q224 215.3 224 231.3L224 231.3L231 231.3Q231 231.3 231 215.3L231 215.3ZM239 215.3L232 215.3Q232 215.3 232 231.3L232 231.3L239 231.3Q239 231.3 239 215.3L239 215.3ZM247 215.3L240 215.3Q240 215.3 240 231.3L240 231.3L247 231.3Q247 231.3 247 215.3L247 215.3ZM255 215.3L248 215.3Q248 215.3 248 231.3L248 231.3L255 231.3Q255 231.3 255 215.3L255 215.3ZM256 223.3L258 223.3L258 222.3L256 222.3L256 223.3ZM259 223.3L261 223.3L261 222.3L259 222.3L259 223.3ZM262 223.3L264 223.3L264 222.3L262 222.3L262 223.3ZM271 215.3L264 215.3Q264 215.3 264 231.3L264 231.3L271 231.3Q271 231.3 271 215.3L271 215.3ZM279 215.3L272 215.3Q272 215.3 272 231.3L272 231.3L279 231.3Q279 231.3 279 215.3L279 215.3ZM287 215.3L280 215.3Q280 215.3 280 231.3L280 231.3L287 231.3Q287 231.3 287 215.3L287 215.3ZM295 215.3L288 215.3Q288 215.3 288 231.3L288 231.3L295 231.3Q295 231.3 295 215.3L295 215.3ZM303 215.3L296 215.3Q296 215.3 296 231.3L296 231.3L303 231.3Q303 231.3 303 215.3L303 215.3ZM311 215.3L304 215.3Q304 215.3 304 231.3L304 231.3L311 231.3Q311 231.3 311 215.3L311 215.3ZM312 223.3L314 223.3L314 222.3L312 222.3L312 223.3ZM315 223.3L317 223.3L317 222.3L315 222.3L315 223.3ZM318 223.3L320 223.3L320 222.3L318 222.3L318 223.3ZM327 215.3L320 215.3Q320 215.3 320 231.3L320 231.3L327 231.3Q327 231.3 327 215.3L327 215.3ZM335 215.3L328 215.3Q328 215.3 328 231.3L328 231.3L335 231.3Q335 231.3 335 215.3L335 215.3ZM343 215.3L336 215.3Q336 215.3 336 231.3L336 231.3L343 231.3Q343 231.3 343 215.3L343 215.3ZM351 215.3L344 215.3Q344 215.3 344 231.3L344 231.3L351 231.3Q351 231.3 351 215.3L351 215.3ZM359 215.3L352 215.3Q352 215.3 352 231.3L352 231.3L359 231.3Q359 231.3 359 215.3L359 215.3ZM367 215.3L360 215.3Q360 215.3 360 231.3L360 231.3L367 231.3Q367 231.3 367 215.3L367 215.3ZM368 223.3L370 223.3L370 222.3L368 222.3L368 223.3ZM371 223.3L373 223.3L373 222.3L371 222.3L371 223.3ZM374 223.3L376 223.3L376 222.3L374 222.3L374 223.3ZM383 215.3L376 215.3Q376 215.3 376 231.3L376 231.3L383 231.3Q383 231.3 383 215.3L383 215.3ZM391 215.3L384 215.3Q384 215.3 384 231.3L384 231.3L391 231.3Q391 231.3 391 215.3L391 215.3ZM399 215.3L392 215.3Q392 215.3 392 231.3L392 231.3L399 231.3Q399 231.3 399 215.3L399 215.3ZM407 215.3L400 215.3Q400 215.3 400 231.3L400 231.3L407 231.3Q407 231.3 407 215.3L407 215.3ZM415 215.3L408 215.3Q408 215.3 408 231.3L408 231.3L415 231.3Q415 231.3 415 215.3L415 215.3ZM423 215.3L416 215.3Q416 215.3 416 231.3L416 231.3L423 231.3Q423 231.3 423 215.3L423 215.3ZM424 223.3L426 223.3L426 222.3L424 222.3L424 223.3ZM427 223.3L429 223.3L429 222.3L427 222.3L427 223.3ZM430 223.3L432 223.3L432 222.3L430 222.3L430 223.3ZM439 215.3L432 215.3Q432 215.3 432 231.3L432 231.3L439 231.3Q439 231.3 439 215.3L439 215.3ZM447 215.3L440 215.3Q440 215.3 440 231.3L440 231.3L447 231.3Q447 231.3 447 215.3L447 215.3ZM455 215.3L448 215.3Q448 215.3 448 231.3L448 231.3L455 231.3Q455 231.3 455 215.3L455 215.3ZM463 215.3L456 215.3Q456 215.3 456 231.3L456 231.3L463 231.3Q463 231.3 463 215.3L463 215.3ZM471 215.3L464 215.3Q464 215.3 464 231.3L464 231.3L471 231.3Q471 231.3 471 215.3L471 215.3ZM479 215.3L472 215.3Q472 215.3 472 231.3L472 231.3L479 231.3Q479 231.3 479 215.3L479 215.3ZM501 225.3L500 225.3Q500 225.3 500 229.3L500 229.3L501 229.3Q501 229.3 501 225.3L501 225.3ZM501 222.3L501 225.3L502 225.3L502 222.3L501 222.3ZM502 222.3L502 222.3L503 222.3L503 219.3L497 219.3L497 220.3L502 220.3Q502 220.3 502 222.3ZM510 228.3L506 228.3L506 229.3L510 229.3L510 228.3ZM505 228.3L506 228.3Q506 228.3 506 226.3L506 226.3L505 226.3Q505 226.3 505 228.3L505 228.3ZM510 228.3L510 228.3L511 228.3Q511 228.3 511 224.3L511 224.3L510 224.3Q510 224.3 510 228.3ZM507 224.3L510 224.3L510 223.3L507 223.3L507 224.3ZM510 220.3L510 223.3L511 223.3L511 220.3L510 220.3ZM506 220.3L505 220.3Q505 220.3 505 222.3L505 222.3L506 222.3Q506 222.3 506 220.3L506 220.3ZM506 219.3L506 220.3L510 220.3L510 219.3L506 219.3Z M40 240.0L42 240.0L42 239.0L40 239.0L40 240.0ZM43 240.0L45 240.0L45 239.0L43 239.0L43 240.0ZM46 240.0L48 240.0L48 239.0L46 239.0L46 240.0ZM48 240.0L50 240.0L50 239.0L48 239.0L48 240.0ZM51 240.0L53 240.0L53 239.0L51 239.0L51 240.0ZM54 240.0L56 240.0L56 239.0L54 239.0L54 240.0ZM56 240.0L58 240.0L58 239.0L56 239.0L56 240.0ZM59 240.0L61 240.0L61 239.0L59 239.0L59 240.0ZM62 240.0L64 240.0L64 239.0L62 239.0L62 240.0ZM64 240.0L66 240.0L66 239.0L64 239.0L64 240.0ZM67 240.0L69 240.0L69 239.0L67 239.0L67 240.0ZM70 240.0L72 240.0L72 239.0L70 239.0L70 240.0ZM72 240.0L74 240.0L74 239.0L72 239.0L72 240.0ZM75 240.0L77 240.0L77 239.0L75 239.0L75 240.0ZM78 240.0L80 240.0L80 239.0L78 239.0L78 240.0ZM80 240.0L82 240.0L82 239.0L80 239.0L80 240.0ZM83 240.0L85 240.0L85 239.0L83 239.0L83 240.0ZM86 240.0L88 240.0L88 239.0L86 239.0L86 240.0ZM88 240.0L90 240.0L90 239.0L88 239.0L88 240.0ZM91 240.0L93 240.0L93 239.0L91 239.0L91 240.0ZM94 240.0L96 240.0L96 239.0L94 239.0L94 240.0ZM96 240.0L98 240.0L98 239.0L96 239.0L96 240.0ZM99 240.0L101 240.0L101 239.0L99 239.0L99 240.0ZM102 240.0L104 240.0L104 239.0L102 239.0L102 240.0ZM104 240.0L106 240.0L106 239.0L104 239.0L104 240.0ZM107 240.0L109 240.0L109 239.0L107 239.0L107 240.0ZM110 240.0L112 240.0L112 239.0L110 239.0L110 240.0ZM112 240.0L114 240.0L114 239.0L112 239.0L112 240.0ZM115 240.0L117 240.0L117 239.0L115 239.0L115 240.0ZM118 240.0L120 240.0L120 239.0L118 239.0L118 240.0ZM120 240.0L122 240.0L122 239.0L120 239.0L120 240.0ZM123 240.0L125 240.0L125 239.0L123 239.0L123 240.0ZM126 240.0L128 240.0L128 239.0L126 239.0L126 240.0ZM128 240.0L130 240.0L130 239.0L128 239.0L128 240.0ZM131 240.0L133 240.0L133 239.0L131 239.0L131 240.0ZM134 240.0L136 240.0L136 239.0L134 239.0L134 240.0ZM136 240.0L138 240.0L138 239.0L136 239.0L136 240.0ZM139 240.0L141 240.0L141 239.0L139 239.0L139 240.0ZM142 240.0L144 240.0L144 239.0L142 239.0L142 240.0ZM144 240.0L146 240.0L146 239.0L144 239.0L144 240.0ZM147 240.0L149 240.0L149 239.0L147 239.0L147 240.0ZM150 240.0L152 240.0L152 239.0L150 239.0L150 240.0ZM159 232.0L152 232.0Q152 232.0 152 248.0L152 248.0L159 248.0Q159 248.0 159 232.0L159 232.0ZM167 232.0L160 232.0Q160 232.0 160 248.0L160 248.0L167 248.0Q167 248.0 167 232.0L167 232.0ZM175 232.0L168 232.0Q168 232.0 168 248.0L168 248.0L175 248.0Q175 248.0 175 232.0L175 232.0ZM183 232.0L176 232.0Q176 232.0 176 248.0L176 248.0L183 248.0Q183 248.0 183 232.0L183 232.0ZM191 232.0L184 232.0Q184 232.0 184 248.0L184 248.0L191 248.0Q191 248.0 191 232.0L191 232.0ZM199 232.0L192 232.0Q192 232.0 192 248.0L192 248.0L199 248.0Q199 248.0 199 232.0L199 232.0ZM200 240.0L202 240.0L202 239.0L200 239.0L200 240.0ZM203 240.0L205 240.0L205 239.0L203 239.0L203 240.0ZM206 240.0L208 240.0L208 239.0L206 239.0L206 240.0ZM215 232.0L208 232.0Q208 232.0 208 248.0L208 248.0L215 248.0Q215 248.0 215 232.0L215 232.0ZM223 232.0L216 232.0Q216 232.0 216 248.0L216 248.0L223 248.0Q223 248.0 223 232.0L223 232.0ZM231 232.0L224 232.0Q224 232.0 224 248.0L224 248.0L231 248.0Q231 248.0 231 232.0L231 232.0ZM239 232.0L232 232.0Q232 232.0 232 248.0L232 248.0L239 248.0Q239 248.0 239 232.0L239 232.0ZM247 232.0L240 232.0Q240 232.0 240 248.0L240 248.0L247 248.0Q247 248.0 247 232.0L247 232.0ZM255 232.0L248 232.0Q248 232.0 248 248.0L248 248.0L255 248.0Q255 248.0 255 232.0L255 232.0ZM256 240.0L258 240.0L258 239.0L256 239.0L256 240.0ZM259 240.0L261 240.0L261 239.0L259 239.0L259 240.0ZM262 240.0L264 240.0L264 239.0L262 239.0L262 240.0ZM271 232.0L264 232.0Q264 232.0 264 248.0L264 248.0L271 248.0Q271 248.0 271 232.0L271 232.0ZM279 232.0L272 232.0Q272 232.0 272 248.0L272 248.0L279 248.0Q279 248.0 279 232.0L279 232.0ZM287 232.0L280 232.0Q280 232.0 280 248.0L280 248.0L287 248.0Q287 248.0 287 232.0L287 232.0ZM295 232.0L288 232.0Q288 232.0 288 248.0L288 248.0L295 248.0Q295 248.0 295 232.0L295 232.0ZM303 232.0L296 232.0Q296 232.0 296 248.0L296 248.0L303 248.0Q303 248.0 303 232.0L303 232.0ZM311 232.0L304 232.0Q304 232.0 304 248.0L304 248.0L311 248.0Q311 248.0 311 232.0L311 232.0ZM312 240.0L314 240.0L314 239.0L312 239.0L312 240.0ZM315 240.0L317 240.0L317 239.0L315 239.0L315 240.0ZM318 240.0L320 240.0L320 239.0L318 239.0L318 240.0ZM327 232.0L320 232.0Q320 232.0 320 248.0L320 248.0L327 248.0Q327 248.0 327 232.0L327 232.0ZM335 232.0L328 232.0Q328 232.0 328 248.0L328 248.0L335 248.0Q335 248.0 335 232.0L335 232.0ZM343 232.0L336 232.0Q336 232.0 336 248.0L336 248.0L343 248.0Q343 248.0 343 232.0L343 232.0ZM351 232.0L344 232.0Q344 232.0 344 248.0L344 248.0L351 248.0Q351 248.0 351 232.0L351 232.0ZM359 232.0L352 232.0Q352 232.0 352 248.0L352 248.0L359 248.0Q359 248.0 359 232.0L359 232.0ZM367 232.0L360 232.0Q360 232.0 360 248.0L360 248.0L367 248.0Q367 248.0 367 232.0L367 232.0ZM368 240.0L370 240.0L370 239.0L368 239.0L368 240.0ZM371 240.0L373 240.0L373 239.0L371 239.0L371 240.0ZM374 240.0L376 240.0L376 239.0L374 239.0L374 240.0ZM383 232.0L376 232.0Q376 232.0 376 248.0L376 248.0L383 248.0Q383 248.0 383 232.0L383 232.0ZM391 232.0L384 232.0Q384 232.0 384 248.0L384 248.0L391 248.0Q391 248.0 391 232.0L391 232.0ZM399 232.0L392 232.0Q392 232.0 392 248.0L392 248.0L399 248.0Q399 248.0 399 232.0L399 232.0ZM407 232.0L400 232.0Q400 232.0 400 248.0L400 248.0L407 248.0Q407 248.0 407 232.0L407 232.0ZM415 232.0L408 232.0Q408 232.0 408 248.0L408 248.0L415 248.0Q415 248.0 415 232.0L415 232.0ZM423 232.0L416 232.0Q416 232.0 416 248.0L416 248.0L423 248.0Q423 248.0 423 232.0L423 232.0ZM424 240.0L426 240.0L426 239.0L424 239.0L424 240.0ZM427 240.0L429 240.0L429 239.0L427 239.0L427 240.0ZM430 240.0L432 240.0L432 239.0L430 239.0L430 240.0ZM439 232.0L432 232.0Q432 232.0 432 248.0L432 248.0L439 248.0Q439 248.0 439 232.0L439 232.0ZM447 232.0L440 232.0Q440 232.0 440 248.0L440 248.0L447 248.0Q447 248.0 447 232.0L447 232.0ZM455 232.0L448 232.0Q448 232.0 448 248.0L448 248.0L455 248.0Q455 248.0 455 232.0L455 232.0ZM463 232.0L456 232.0Q456 232.0 456 248.0L456 248.0L463 248.0Q463 248.0 463 232.0L463 232.0ZM471 232.0L464 232.0Q464 232.0 464 248.0L464 248.0L471 248.0Q471 248.0 471 232.0L471 232.0ZM479 232.0L472 232.0Q472 232.0 472 248.0L472 248.0L479 248.0Q479 248.0 479 232.0L479 232.0ZM498 237.0L503 237.0L503 236.0L497 236.0L497 241.0L502 241.0Q502 241.0 502 245.0L502 245.0L498 245.0L498 246.0L502 246.0L502 245.0L503 245.0Q503 245.0 503 241.0L503 241.0L502 241.0L502 240.0L498 240.0L498 237.0ZM497 245.0L498 245.0L498 244.0L497 244.0L497 245.0ZM506 237.0L511 237.0L511 236.0L505 236.0L505 241.0L510 241.0Q510 241.0 510 245.0L510 245.0L506 245.0L506 246.0L510 246.0L510 245.0L511 245.0Q511 245.0 511 241.0L511 241.0L510 241.0L510 240.0L506 240.0L506 237.0ZM505 245.0L506 245.0L506 244.0L505 244.0L505 245.0Z M47 248.7L40 248.7Q40 248.7 40 264.7L40 264.7L47 264.7Q47 264.7 47 248.7L47 248.7ZM55 248.7L48 248.7Q48 248.7 48 264.7L48 264.7L55 264.7Q55 264.7 55 248.7L55 248.7ZM63 248.7L56 248.7Q56 248.7 56 264.7L56 264.7L63 264.7Q63 264.7 63 248.7L63 248.7ZM71 248.7L64 248.7Q64 248.7 64 264.7L64 264.7L71 264.7Q71 264.7 71 248.7L71 248.7ZM79 248.7L72 248.7Q72 248.7 72 264.7L72 264.7L79 264.7Q79 264.7 79 248.7L79 248.7ZM87 248.7L80 248.7Q80 248.7 80 264.7L80 264.7L87 264.7Q87 264.7 87 248.7L87 248.7ZM88 256.7L90 256.7L90 255.7L88 255.7L88 256.7ZM91 256.7L93 256.7L93 255.7L91 255.7L91 256.7ZM94 256.7L96 256.7L96 255.7L94 255.7L94 256.7ZM103 248.7L96 248.7Q96 248.7 96 264.7L96 264.7L103 264.7Q103 264.7 103 248.7L103 248.7ZM111 248.7L104 248.7Q104 248.7 104 264.7L104 264.7L111 264.7Q111 264.7 111 248.7L111 248.7ZM119 248.7L112 248.7Q112 248.7 112 264.7L112 264.7L119 264.7Q119 264.7 119 248.7L119 248.7ZM127 248.7L120 248.7Q120 248.7 120 264.7L120 264.7L127 264.7Q127 264.7 127 248.7L127 248.7ZM135 248.7L128 248.7Q128 248.7 128 264.7L128 264.7L135 264.7Q135 264.7 135 248.7L135 248.7ZM143 248.7L136 248.7Q136 248.7 136 264.7L136 264.7L143 264.7Q143 264.7 143 248.7L143 248.7ZM144 256.7L146 256.7L146 255.7L144 255.7L144 256.7ZM147 256.7L149 256.7L149 255.7L147 255.7L147 256.7ZM150 256.7L152 256.7L152 255.7L150 255.7L150 256.7ZM159 248.7L152 248.7Q152 248.7 152 264.7L152 264.7L159 264.7Q159 264.7 159 248.7L159 248.7ZM167 248.7L160 248.7Q160 248.7 160 264.7L160 264.7L167 264.7Q167 264.7 167 248.7L167 248.7ZM175 248.7L168 248.7Q168 248.7 168 264.7L168 264.7L175 264.7Q175 264.7 175 248.7L175 248.7ZM183 248.7L176 248.7Q176 248.7 176 264.7L176 264.7L183 264.7Q183 264.7 183 248.7L183 248.7ZM191 248.7L184 248.7Q184 248.7 184 264.7L184 264.7L191 264.7Q191 264.7 191 248.7L191 248.7ZM199 248.7L192 248.7Q192 248.7 192 264.7L192 264.7L199 264.7Q199 264.7 199 248.7L199 248.7ZM200 256.7L202 256.7L202 255.7L200 255.7L200 256.7ZM203 256.7L205 256.7L205 255.7L203 255.7L203 256.7ZM206 256.7L208 256.7L208 255.7L206 255.7L206 256.7ZM215 248.7L208 248.7Q208 248.7 208 264.7L208 264.7L215 264.7Q215 264.7 215 248.7L215 248.7ZM223 248.7L216 248.7Q216 248.7 216 264.7L216 264.7L223 264.7Q223 264.7 223 248.7L223 248.7ZM231 248.7L224 248.7Q224 248.7 224 264.7L224 264.7L231 264.7Q231 264.7 231 248.7L231 248.7ZM239 248.7L232 248.7Q232 248.7 232 264.7L232 264.7L239 264.7Q239 264.7 239 248.7L239 248.7ZM247 248.7L240 248.7Q240 248.7 240 264.7L240 264.7L247 264.7Q247 264.7 247 248.7L247 248.7ZM255 248.7L248 248.7Q248 248.7 248 264.7L248 264.7L255 264.7Q255 264.7 255 248.7L255 248.7ZM256 256.7L258 256.7L258 255.7L256 255.7L256 256.7ZM259 256.7L261 256.7L261 255.7L259 255.7L259 256.7ZM262 256.7L264 256.7L264 255.7L262 255.7L262 256.7ZM271 248.7L264 248.7Q264 248.7 264 264.7L264 264.7L271 264.7Q271 264.7 271 248.7L271 248.7ZM279 248.7L272 248.7Q272 248.7 272 264.7L272 264.7L279 264.7Q279 264.7 279 248.7L279 248.7ZM287 248.7L280 248.7Q280 248.7 280 264.7L280 264.7L287 264.7Q287 264.7 287 248.7L287 248.7ZM295 248.7L288 248.7Q288 248.7 288 264.7L288 264.7L295 264.7Q295 264.7 295 248.7L295 248.7ZM303 248.7L296 248.7Q296 248.7 296 264.7L296 264.7L303 264.7Q303 264.7 303 248.7L303 248.7ZM311 248.7L304 248.7Q304 248.7 304 264.7L304 264.7L311 264.7Q311 264.7 311 248.7L311 248.7ZM312 256.7L314 256.7L314 255.7L312 255.7L312 256.7ZM315 256.7L317 256.7L317 255.7L315 255.7L315 256.7ZM318 256.7L320 256.7L320 255.7L318 255.7L318 256.7ZM327 248.7L320 248.7Q320 248.7 320 264.7L320 264.7L327 264.7Q327 264.7 327 248.7L327 248.7ZM335 248.7L328 248.7Q328 248.7 328 264.7L328 264.7L335 264.7Q335 264.7 335 248.7L335 248.7ZM343 248.7L336 248.7Q336 248.7 336 264.7L336 264.7L343 264.7Q343 264.7 343 248.7L343 248.7ZM351 248.7L344 248.7Q344 248.7 344 264.7L344 264.7L351 264.7Q351 264.7 351 248.7L351 248.7ZM359 248.7L352 248.7Q352 248.7 352 264.7L352 264.7L359 264.7Q359 264.7 359 248.7L359 248.7ZM367 248.7L360 248.7Q360 248.7 360 264.7L360 264.7L367 264.7Q367 264.7 367 248.7L367 248.7ZM368 256.7L370 256.7L370 255.7L368 255.7L368 256.7ZM371 256.7L373 256.7L373 255.7L371 255.7L371 256.7ZM374 256.7L376 256.7L376 255.7L374 255.7L374 256.7ZM383 248.7L376 248.7Q376 248.7 376 264.7L376 264.7L383 264.7Q383 264.7 383 248.7L383 248.7ZM391 248.7L384 248.7Q384 248.7 384 264.7L384 264.7L391 264.7Q391 264.7 391 248.7L391 248.7ZM399 248.7L392 248.7Q392 248.7 392 264.7L392 264.7L399 264.7Q399 264.7 399 248.7L399 248.7ZM407 248.7L400 248.7Q400 248.7 400 264.7L400 264.7L407 264.7Q407 264.7 407 248.7L407 248.7ZM415 248.7L408 248.7Q408 248.7 408 264.7L408 264.7L415 264.7Q415 264.7 415 248.7L415 248.7ZM423 248.7L416 248.7Q416 248.7 416 264.7L416 264.7L423 264.7Q423 264.7 423 248.7L423 248.7ZM424 256.7L426 256.7L426 255.7L424 255.7L424 256.7ZM427 256.7L429 256.7L429 255.7L427 255.7L427 256.7ZM430 256.7L432 256.7L432 255.7L430 255.7L430 256.7ZM439 248.7L432 248.7Q432 248.7 432 264.7L432 264.7L439 264.7Q439 264.7 439 248.7L439 248.7ZM447 248.7L440 248.7Q440 248.7 440 264.7L440 264.7L447 264.7Q447 264.7 447 248.7L447 248.7ZM455 248.7L448 248.7Q448 248.7 448 264.7L448 264.7L455 264.7Q455 264.7 455 248.7L455 248.7ZM463 248.7L456 248.7Q456 248.7 456 264.7L456 264.7L463 264.7Q463 264.7 463 248.7L463 248.7ZM471 248.7L464 248.7Q464 248.7 464 264.7L464 264.7L471 264.7Q471 264.7 471 248.7L471 248.7ZM479 248.7L472 248.7Q472 248.7 472 264.7L472 264.7L479 264.7Q479 264.7 479 248.7L479 248.7ZM502 261.7L498 261.7L498 262.7L502 262.7L502 261.7ZM497 261.7L498 261.7Q498 261.7 498 259.7L498 259.7L497 259.7Q497 259.7 497 261.7L497 261.7ZM502 261.7L502 261.7L503 261.7Q503 261.7 503 257.7L503 257.7L502 257.7Q502 257.7 502 261.7ZM499 257.7L502 257.7L502 256.7L499 256.7L499 257.7ZM502 253.7L502 256.7L503 256.7L503 253.7L502 253.7ZM498 253.7L497 253.7Q497 253.7 497 255.7L497 255.7L498 255.7Q498 255.7 498 253.7L498 253.7ZM498 252.7L498 253.7L502 253.7L502 252.7L498 252.7ZM507 253.7L510 253.7L510 252.7L507 252.7L507 253.7L506 253.7L506 254.7L505 254.7L505 261.7L506 261.7L506 262.7L510 262.7L510 261.7L506 261.7Q506 261.7 506 257.7L506 257.7L510 257.7Q510 257.7 510 261.7L510 261.7L511 261.7Q511 261.7 511 257.7L511 257.7L510 257.7L510 256.7L506 256.7Q506 256.7 506 254.7L506 254.7L507 254.7L507 253.7Z M47 265.3L40 265.3Q40 265.3 40 281.3L40 281.3L47 281.3Q47 281.3 47 265.3L47 265.3ZM55 265.3L48 265.3Q48 265.3 48 281.3L48 281.3L55 281.3Q55 281.3 55 265.3L55 265.3ZM63 265.3L56 265.3Q56 265.3 56 281.3L56 281.3L63 281.3Q63 281.3 63 265.3L63 265.3ZM71 265.3L64 265.3Q64 265.3 64 281.3L64 281.3L71 281.3Q71 281.3 71 265.3L71 265.3ZM79 265.3L72 265.3Q72 265.3 72 281.3L72 281.3L79 281.3Q79 281.3 79 265.3L79 265.3ZM87 265.3L80 265.3Q80 265.3 80 281.3L80 281.3L87 281.3Q87 281.3 87 265.3L87 265.3ZM88 273.3L90 273.3L90 272.3L88 272.3L88 273.3ZM91 273.3L93 273.3L93 272.3L91 272.3L91 273.3ZM94 273.3L96 273.3L96 272.3L94 272.3L94 273.3ZM103 265.3L96 265.3Q96 265.3 96 281.3L96 281.3L103 281.3Q103 281.3 103 265.3L103 265.3ZM111 265.3L104 265.3Q104 265.3 104 281.3L104 281.3L111 281.3Q111 281.3 111 265.3L111 265.3ZM119 265.3L112 265.3Q112 265.3 112 281.3L112 281.3L119 281.3Q119 281.3 119 265.3L119 265.3ZM127 265.3L120 265.3Q120 265.3 120 281.3L120 281.3L127 281.3Q127 281.3 127 265.3L127 265.3ZM135 265.3L128 265.3Q128 265.3 128 281.3L128 281.3L135 281.3Q135 281.3 135 265.3L135 265.3ZM143 265.3L136 265.3Q136 265.3 136 281.3L136 281.3L143 281.3Q143 281.3 143 265.3L143 265.3ZM144 273.3L146 273.3L146 272.3L144 272.3L144 273.3ZM147 273.3L149 273.3L149 272.3L147 272.3L147 273.3ZM150 273.3L152 273.3L152 272.3L150 272.3L150 273.3ZM159 265.3L152 265.3Q152 265.3 152 281.3L152 281.3L159 281.3Q159 281.3 159 265.3L159 265.3ZM167 265.3L160 265.3Q160 265.3 160 281.3L160 281.3L167 281.3Q167 281.3 167 265.3L167 265.3ZM175 265.3L168 265.3Q168 265.3 168 281.3L168 281.3L175 281.3Q175 281.3 175 265.3L175 265.3ZM183 265.3L176 265.3Q176 265.3 176 281.3L176 281.3L183 281.3Q183 281.3 183 265.3L183 265.3ZM191 265.3L184 265.3Q184 265.3 184 281.3L184 281.3L191 281.3Q191 281.3 191 265.3L191 265.3ZM199 265.3L192 265.3Q192 265.3 192 281.3L192 281.3L199 281.3Q199 281.3 199 265.3L199 265.3ZM200 273.3L202 273.3L202 272.3L200 272.3L200 273.3ZM203 273.3L205 273.3L205 272.3L203 272.3L203 273.3ZM206 273.3L208 273.3L208 272.3L206 272.3L206 273.3ZM215 265.3L208 265.3Q208 265.3 208 281.3L208 281.3L215 281.3Q215 281.3 215 265.3L215 265.3ZM223 265.3L216 265.3Q216 265.3 216 281.3L216 281.3L223 281.3Q223 281.3 223 265.3L223 265.3ZM231 265.3L224 265.3Q224 265.3 224 281.3L224 281.3L231 281.3Q231 281.3 231 265.3L231 265.3ZM239 265.3L232 265.3Q232 265.3 232 281.3L232 281.3L239 281.3Q239 281.3 239 265.3L239 265.3ZM247 265.3L240 265.3Q240 265.3 240 281.3L240 281.3L247 281.3Q247 281.3 247 265.3L247 265.3ZM255 265.3L248 265.3Q248 265.3 248 281.3L248 281.3L255 281.3Q255 281.3 255 265.3L255 265.3ZM256 273.3L258 273.3L258 272.3L256 272.3L256 273.3ZM259 273.3L261 273.3L261 272.3L259 272.3L259 273.3ZM262 273.3L264 273.3L264 272.3L262 272.3L262 273.3ZM271 265.3L264 265.3Q264 265.3 264 281.3L264 281.3L271 281.3Q271 281.3 271 265.3L271 265.3ZM279 265.3L272 265.3Q272 265.3 272 281.3L272 281.3L279 281.3Q279 281.3 279 265.3L279 265.3ZM287 265.3L280 265.3Q280 265.3 280 281.3L280 281.3L287 281.3Q287 281.3 287 265.3L287 265.3ZM295 265.3L288 265.3Q288 265.3 288 281.3L288 281.3L295 281.3Q295 281.3 295 265.3L295 265.3ZM303 265.3L296 265.3Q296 265.3 296 281.3L296 281.3L303 281.3Q303 281.3 303 265.3L303 265.3ZM311 265.3L304 265.3Q304 265.3 304 281.3L304 281.3L311 281.3Q311 281.3 311 265.3L311 265.3ZM312 273.3L314 273.3L314 272.3L312 272.3L312 273.3ZM315 273.3L317 273.3L317 272.3L315 272.3L315 273.3ZM318 273.3L320 273.3L320 272.3L318 272.3L318 273.3ZM327 265.3L320 265.3Q320 265.3 320 281.3L320 281.3L327 281.3Q327 281.3 327 265.3L327 265.3ZM335 265.3L328 265.3Q328 265.3 328 281.3L328 281.3L335 281.3Q335 281.3 335 265.3L335 265.3ZM343 265.3L336 265.3Q336 265.3 336 281.3L336 281.3L343 281.3Q343 281.3 343 265.3L343 265.3ZM351 265.3L344 265.3Q344 265.3 344 281.3L344 281.3L351 281.3Q351 281.3 351 265.3L351 265.3ZM359 265.3L352 265.3Q352 265.3 352 281.3L352 281.3L359 281.3Q359 281.3 359 265.3L359 265.3ZM367 265.3L360 265.3Q360 265.3 360 281.3L360 281.3L367 281.3Q367 281.3 367 265.3L367 265.3ZM368 273.3L370 273.3L370 272.3L368 272.3L368 273.3ZM371 273.3L373 273.3L373 272.3L371 272.3L371 273.3ZM374 273.3L376 273.3L376 272.3L374 272.3L374 273.3ZM383 265.3L376 265.3Q376 265.3 376 281.3L376 281.3L383 281.3Q383 281.3 383 265.3L383 265.3ZM391 265.3L384 265.3Q384 265.3 384 281.3L384 281.3L391 281.3Q391 281.3 391 265.3L391 265.3ZM399 265.3L392 265.3Q392 265.3 392 281.3L392 281.3L399 281.3Q399 281.3 399 265.3L399 265.3ZM407 265.3L400 265.3Q400 265.3 400 281.3L400 281.3L407 281.3Q407 281.3 407 265.3L407 265.3ZM415 265.3L408 265.3Q408 265.3 408 281.3L408 281.3L415 281.3Q415 281.3 415 265.3L415 265.3ZM423 265.3L416 265.3Q416 265.3 416 281.3L416 281.3L423 281.3Q423 281.3 423 265.3L423 265.3ZM424 273.3L426 273.3L426 272.3L424 272.3L424 273.3ZM427 273.3L429 273.3L429 272.3L427 272.3L427 273.3ZM430 273.3L432 273.3L432 272.3L430 272.3L430 273.3ZM439 265.3L432 265.3Q432 265.3 432 281.3L432 281.3L439 281.3Q439 281.3 439 265.3L439 265.3ZM447 265.3L440 265.3Q440 265.3 440 281.3L440 281.3L447 281.3Q447 281.3 447 265.3L447 265.3ZM455 265.3L448 265.3Q448 265.3 448 281.3L448 281.3L455 281.3Q455 281.3 455 265.3L455 265.3ZM463 265.3L456 265.3Q456 265.3 456 281.3L456 281.3L463 281.3Q463 281.3 463 265.3L463 265.3ZM471 265.3L464 265.3Q464 265.3 464 281.3L464 281.3L471 281.3Q471 281.3 471 265.3L471 265.3ZM479 265.3L472 265.3Q472 265.3 472 281.3L472 281.3L479 281.3Q479 281.3 479 265.3L479 265.3ZM501 278.3L499 278.3L499 279.3L501 279.3L501 278.3ZM498 278.3L499 278.3L499 277.3L498 277.3L498 278.3ZM501 277.3L501 278.3L502 278.3L502 277.3L501 277.3ZM497 277.3L498 277.3L498 276.3L499 276.3L499 275.3L498 275.3Q498 275.3 498 271.3L498 271.3L497 271.3Q497 271.3 497 277.3L497 277.3ZM502 277.3L502 277.3L503 277.3Q503 277.3 503 271.3L503 271.3L502 271.3L502 272.3L501 272.3L501 273.3L500 273.3L500 274.3L499 274.3L499 275.3L500 275.3L500 274.3L501 274.3L501 273.3L502 273.3Q502 273.3 502 277.3ZM498 270.3L498 271.3L499 271.3L499 270.3L498 270.3ZM501 271.3L502 271.3L502 270.3L501 270.3L501 271.3ZM499 269.3L499 270.3L501 270.3L501 269.3L499 269.3Z "/></svg>